<svg id="Layer_1" data-name="Layer 1" xmlns="http://www.w3.org/2000/svg" viewBox="0 0 430.24 139.13"><defs><style>.cls-1{fill:none;}.cls-2{fill:#2b3074;}.cls-3{fill:#4e56a5;}.cls-4{fill:#fff;}.cls-5{fill:#bdc5df;}</style></defs><title>OpenPath_Horiz</title><path class="cls-1" d="M117.91,78c3.18,0,4.94-2.3,4.94-6.77V70.7c0-4.81-1.56-7.05-4.94-7.05s-4.68,2.65-4.68,7v.54C113.23,75.64,114.72,78,117.91,78Z"/><path class="cls-1" d="M161.17,62c-2.57,0-4.4,1.63-4.8,5.08h9.07C165.37,64.13,164.15,62,161.17,62Z"/><path class="cls-1" d="M264,57.7c0-2.78-1.56-4-4.81-4h-1.83v5c2.21-.16,4.41-.3,6.62-.43,0-.11,0-.2,0-.31Z"/><path class="cls-1" d="M202.48,64.67l-.25,0Z"/><path class="cls-2" d="M137.82,78.07a28.1,28.1,0,0,0,.74-6.63V70.9c0-12.73-6.71-18.62-14.42-18.62a11.42,11.42,0,0,0-10.5,6v-5H98.13v26.4C106.62,80.54,119.21,81.14,137.82,78.07Zm-24.59-7.44c0-4.33,1.43-7,4.68-7s4.94,2.24,4.94,7.05v.54c0,4.47-1.76,6.77-4.94,6.77s-4.68-2.37-4.68-6.84Z"/><path class="cls-3" d="M113.64,100.42V83.9c1.63,3.45,5.35,5.82,10.36,5.82,6.17,0,11.86-3.53,13.82-11.65-18.61,3.07-31.2,2.47-39.69,1.69v20.66Z"/><path class="cls-2" d="M180.17,68.69c-.95-11.26-9.19-16.41-19-16.41-11.17,0-20.44,7-20.44,18.76v.54a20.6,20.6,0,0,0,.81,5.84c4.58-.84,9.48-1.89,14.76-3.2C164,72.29,171.9,70.42,180.17,68.69Zm-19-6.73c3,0,4.2,2.17,4.27,5.08h-9.07C156.77,63.59,158.6,62,161.17,62Z"/><path class="cls-3" d="M180.27,74.22V70.9c0-.76,0-1.5-.1-2.21-8.27,1.73-16.15,3.6-23.87,5.53Z"/><path class="cls-3" d="M161,89.72c12.12,0,18.35-5,19.36-13.4H166.12c-.34,1.42-1.29,3.11-4.54,3.11-2.84,0-4.87-1.69-5.28-5.21-5.28,1.31-10.18,2.36-14.76,3.2C144,85.48,151.49,89.72,161,89.72Z"/><path class="cls-2" d="M202.23,64.7l.25,0c6.37-1,12.89-1.84,19.48-2.63-1-6.42-5.16-9.76-10.88-9.76-6,0-9.75,3-11.78,6.77V53.36H183.79V67.94c5.86-1.17,11.94-2.26,18.32-3.22Z"/><path class="cls-3" d="M203.29,64.6c2.44,0,3.39,1.56,3.39,4.4V88.78h15.5V65.08a20.79,20.79,0,0,0-.22-3c-6.59.79-13.11,1.67-19.48,2.63A5.09,5.09,0,0,1,203.29,64.6Z"/><path class="cls-3" d="M199.3,88.78v-19c0-3.09.91-4.67,2.93-5l-.12,0c-6.38,1-12.46,2-18.32,3.22V88.78Z"/><path class="cls-2" d="M257.32,53.7h1.83c3.25,0,4.81,1.22,4.81,4V58c0,.11,0,.2,0,.31,5.69-.34,11.37-.61,17-.8-.05-10.34-5.49-17.12-20.71-17.12H239.38V60.17q8.94-.84,17.94-1.46Z"/><path class="cls-3" d="M257.32,88.78V74.15h3.8c13.47,0,19.84-6.23,19.84-16.25v-.27c0-.05,0-.1,0-.15-5.64.19-11.32.46-17,.8-.13,2.63-1.73,3.95-4.85,3.95h-1.77V58.71q-9,.61-17.94,1.46V88.78Z"/><path class="cls-2" d="M315.61,57.26c-2.88-3.31-7.82-5-14.61-5s-11.8,1.75-14.94,5C296.13,57.05,306,57,315.61,57.26Z"/><path class="cls-3" d="M296.94,65.82c.13-1.08.61-3,3.11-3,3.05,0,3.18,2.17,3.18,4.41v.2h-2.5c-13.21,0-19.37,3.18-19.37,11.58,0,7.65,5.76,10.76,12.05,10.76,6,0,9-2.71,10.23-4.94v4h14.9V66a12.91,12.91,0,0,0-2.93-8.77c-9.58-.24-19.48-.21-29.55.06a13,13,0,0,0-3.48,8.5Zm6.29,10.56c0,1.83-1.55,3.19-3.79,3.19-1.76,0-2.84-.75-2.84-2,0-1.69.61-2.37,4.26-2.37h2.37Z"/><path class="cls-2" d="M346.64,53.36h-6.3v-7h-15.5v7H321v4c8.92.32,17.52.86,25.66,1.66Z"/><path class="cls-3" d="M324.84,63.45V76.11c0,9.75,5.14,13.61,14,13.61a29.15,29.15,0,0,0,7.65-1.15V77.06a7.62,7.62,0,0,1-3,.54c-2,0-3.18-.88-3.18-3V63.45h6.3V59.07c-8.14-.8-16.74-1.34-25.66-1.66v6Z"/><path class="cls-2" d="M389,65.08c0-8.4-4.54-12.8-11.11-12.8-6,0-9.75,3-11.78,6.77V38.47h-15.5v21c14.77,1.63,27.87,4.12,38.39,7.59Z"/><path class="cls-3" d="M366.07,88.78v-19c0-3.59,1.22-5.15,4-5.15,2.43,0,3.38,1.56,3.38,4.4V88.78H389V67.07c-10.52-3.47-23.62-6-38.39-7.59v29.3Z"/><path class="cls-2" d="M60.34,78A25,25,0,0,0,40.4,70.42C42,83.54,51.71,91.88,67,91.88a35.34,35.34,0,0,0,10-1.37C72.43,88.41,66.73,84.62,60.34,78Z"/><path class="cls-2" d="M60.34,68.78V57.5l14.27-3.29V74.75c4.41,2.48,11,3.73,17,4.35A27.41,27.41,0,0,0,94.8,65.84v-.55c0-16.23-12-24.93-27.43-24.93-15,0-27.22,9.68-27.22,25.41v.56a33.9,33.9,0,0,0,.25,4.09A32.08,32.08,0,0,1,60.34,68.78Z"/><polygon class="cls-3" points="40.4 70.42 40.4 70.42 40.4 70.42 40.4 70.42"/><path class="cls-3" d="M60.34,78V68.78A32.08,32.08,0,0,0,40.4,70.42h0A25,25,0,0,1,60.34,78Z"/><path class="cls-3" d="M91.66,79.1c-6.09-.62-12.64-1.87-17-4.35L60.34,78C66.73,84.62,72.43,88.41,77,90.51A23.76,23.76,0,0,0,91.66,79.1Z"/><path class="cls-4" d="M60.34,57.5V68.78a55.11,55.11,0,0,1,14.27,6V54.21Z"/><path class="cls-5" d="M60.34,78l14.27-3.28a55.11,55.11,0,0,0-14.27-6Z"/></svg>
