<?xml version="1.0" standalone="no"?>
<!DOCTYPE svg PUBLIC "-//W3C//DTD SVG 1.1//EN" "http://www.w3.org/Graphics/SVG/1.1/DTD/svg11.dtd">
<svg xmlns="http://www.w3.org/2000/svg">
<metadata>Copyright (C) 2022 by original authors @ fontello.com</metadata>
<defs>
<font id="icons" horiz-adv-x="1000" >
<font-face font-family="icons" font-weight="400" font-stretch="normal" units-per-em="1000" ascent="850" descent="-150" />
<missing-glyph horiz-adv-x="1000" />
<glyph glyph-name="ok-circled" unicode="&#xe800;" d="M717 440q0 16-10 26l-51 50q-11 11-25 11t-25-11l-228-227-126 126q-11 11-25 11t-25-11l-51-50q-10-10-10-26 0-15 10-25l202-202q10-10 25-10 15 0 26 10l303 303q10 10 10 25z m140-90q0-117-57-215t-156-156-215-58-216 58-155 156-58 215 58 215 155 156 216 58 215-58 156-156 57-215z" horiz-adv-x="857.1" />

<glyph glyph-name="ok-circled2" unicode="&#xe801;" d="M654 396l-236-235q-11-11-25-11t-25 11l-164 164q-11 11-11 25t11 25l57 57q10 11 25 11t25-11l82-82 153 154q11 10 25 10t26-10l57-57q10-11 10-26t-10-25z m78-46q0 83-41 152t-110 111-152 41-153-41-110-111-41-152 41-152 110-111 153-41 152 41 110 111 41 152z m125 0q0-117-57-215t-156-156-215-58-216 58-155 156-58 215 58 215 155 156 216 58 215-58 156-156 57-215z" horiz-adv-x="857.1" />

<glyph glyph-name="cancel-circled" unicode="&#xe802;" d="M641 224q0 14-10 25l-101 101 101 101q10 11 10 25 0 15-10 26l-51 50q-10 11-25 11-15 0-25-11l-101-101-101 101q-11 11-25 11-16 0-26-11l-50-50q-11-11-11-26 0-14 11-25l101-101-101-101q-11-11-11-25 0-15 11-26l50-50q10-11 26-11 14 0 25 11l101 101 101-101q10-11 25-11 15 0 25 11l51 50q10 11 10 26z m216 126q0-117-57-215t-156-156-215-58-216 58-155 156-58 215 58 215 155 156 216 58 215-58 156-156 57-215z" horiz-adv-x="857.1" />

<glyph glyph-name="cancel-circled2" unicode="&#xe803;" d="M612 248l-81-82q-6-5-13-5t-13 5l-76 77-77-77q-5-5-13-5t-12 5l-82 82q-6 6-6 13t6 13l76 76-76 77q-6 5-6 12t6 13l82 82q5 5 12 5t13-5l77-77 76 77q6 5 13 5t13-5l81-82q6-5 6-13t-6-12l-76-77 76-76q6-6 6-13t-6-13z m120 102q0 83-41 152t-110 111-152 41-153-41-110-111-41-152 41-152 110-111 153-41 152 41 110 111 41 152z m125 0q0-117-57-215t-156-156-215-58-216 58-155 156-58 215 58 215 155 156 216 58 215-58 156-156 57-215z" horiz-adv-x="857.1" />

<glyph glyph-name="plus-circled" unicode="&#xe804;" d="M679 314v72q0 14-11 25t-25 10h-143v143q0 15-11 25t-25 11h-71q-15 0-25-11t-11-25v-143h-143q-14 0-25-10t-10-25v-72q0-14 10-25t25-10h143v-143q0-15 11-25t25-11h71q15 0 25 11t11 25v143h143q14 0 25 10t11 25z m178 36q0-117-57-215t-156-156-215-58-216 58-155 156-58 215 58 215 155 156 216 58 215-58 156-156 57-215z" horiz-adv-x="857.1" />

<glyph glyph-name="minus-circled" unicode="&#xe805;" d="M679 314v72q0 14-11 25t-25 10h-429q-14 0-25-10t-10-25v-72q0-14 10-25t25-10h429q14 0 25 10t11 25z m178 36q0-117-57-215t-156-156-215-58-216 58-155 156-58 215 58 215 155 156 216 58 215-58 156-156 57-215z" horiz-adv-x="857.1" />

<glyph glyph-name="up-circle" unicode="&#xe806;" d="M1000 349q0-136-67-251t-182-182-251-67-251 67-182 182-67 251 67 251 182 182 251 67 251-67 182-182 67-251z m-339-118l71 71-232 233-232-233 71-71 161 161z" horiz-adv-x="1000" />

<glyph glyph-name="heart" unicode="&#xe807;" d="M500-79q-14 0-25 10l-348 336q-5 5-15 15t-31 37-38 54-30 67-13 77q0 123 71 192t196 70q34 0 70-12t67-33 54-38 42-38q20 20 42 38t54 38 67 33 70 12q125 0 196-70t71-192q0-123-128-251l-347-335q-10-10-25-10z" horiz-adv-x="1000" />

<glyph glyph-name="heart-empty" unicode="&#xe808;" d="M929 517q0 46-12 80t-31 55-46 33-52 18-55 4-62-14-62-36-48-40-34-34q-10-13-27-13t-27 13q-14 15-34 34t-48 40-62 36-62 14-55-4-52-18-46-33-31-55-12-80q0-93 105-198l324-312 324 312q105 105 105 198z m71 0q0-123-128-251l-347-335q-10-10-25-10t-25 10l-348 336q-5 5-15 15t-31 37-38 54-30 67-13 77q0 123 71 192t196 70q34 0 70-12t67-33 54-38 42-38q20 20 42 38t54 38 67 33 70 12q125 0 196-70t71-192z" horiz-adv-x="1000" />

<glyph glyph-name="city" unicode="&#xe8b5;" d="M984-49h-36v192c0 9-7 16-16 16h-18v36c0 18-15 33-34 33h-70v208c0 9-7 17-16 17h-21c-6 24-25 43-49 50v106c0 9-8 16-17 16s-16-7-16-16v-106c-24-7-44-26-50-50h-4v139c0 6-3 11-8 14l-199 116v43c0 9-7 16-16 16s-17-7-17-16v-261h-104c-9 0-16-7-16-16v-194l-196-49c-7-2-12-8-12-16v-278h-53c-9 0-16-7-16-16s7-16 16-16h968c9 0 16 7 16 16s-7 16-16 16z m-242 208c-9 0-16-7-16-16v-105h-89v140h123v-19h-18z m174-138h-158v36h158v-36z m-151 190h-128v140h141v-127c-6-3-10-8-13-13z m-128-205h89v-55h-89v55z m121-18h158v-37h-158v37z m158 102h-158v37h158v-37z m-35 105v-36h-88v36c0 0 0 1 1 1h86c1 0 1-1 1-1z m-225 225c9 0 16 7 16 16 0 20 16 36 35 36s36-16 36-36c0-9 7-16 16-16h19v-36h-141v36h19z m-226 265l175-102v-632h-37v606c0 9-7 17-16 17s-16-8-16-17v-606h-37v537c0 9-7 16-16 16h-53v181z m37-558v-37h-158v37h158z m-158 32v37h158v-37h-158z m158 138h-158v37h158v-37z m0-32v-37h-158v37h158z m-158-208h158v-36h-158v36z m158 309h-158v37h158v-37z m-158-378h158v-37h-158v37z m158 484v-37h-158v37h158z m-365-256l175 44v-309h-37v226c0 9-7 16-16 16s-17-7-17-16v-226h-36v209c0 9-8 16-17 16s-16-7-16-16v-209h-36v265z" horiz-adv-x="1000" />

<glyph glyph-name="wheelchair" unicode="&#xe900;" d="M571 179l57-114q-33-100-117-162t-190-62q-87 0-161 43t-117 118-43 161q0 101 58 184t154 117l9-73q-68-30-109-92t-41-136q0-104 74-177t176-74q71 0 130 37t92 98 28 132z m306-56l32-64-143-71q-7-4-16-4-22 0-32 20l-133 266h-264q-13 0-23 9t-12 23l-54 434q-1 9 4 24 7 28 31 46t54 17q37 0 64-26t26-63q0-39-29-66t-67-23l20-161h236v-71h-227l9-72h254q23 0 32-19l127-254z" horiz-adv-x="909.2" />

<glyph glyph-name="helping-hands" unicode="&#xe901;" d="M698 713c-42 42-98 65-157 65v0c-52 0-101-18-141-50-40 32-89 50-141 50 0 0 0 0 0 0-59 0-115-23-157-65-43-42-66-98-66-157s23-116 65-158c0 0 0 0 0 0l71-71c0 0 1-1 1-1 11-11 25-16 40-16 2 0 5 0 6 1-1-17 3-34 16-47 11-10 25-16 39-16v0c3 0 5 0 7 1 0-2-1-5-1-6 0-15 6-29 17-39 11-12 25-16 39-16 2 0 5 0 6 0 0-2 0-4 0-6 0-15 5-29 16-40s26-16 40-16c15 0 29 6 40 16l260 258c0 0 0 0 0 0 42 43 64 99 64 158 2 57-21 113-64 155z m-579-299c-1 0-1 0 0 0-37 38-58 88-58 142s21 103 58 140c38 38 88 59 141 59 0 0 0 0 0 0 45 0 87-15 122-43-10-9-137-136-159-158-15-15-13-37 4-54 7-7 15-12 26-16l-79-80c-8-8-14-19-16-29l-39 39z m563 0c0 0 0 0 0 0l-260-259c-12-13-32-13-45 0-6 6-9 14-9 23s3 17 10 22c0 0 0 0 0 0s0 0 0 0l128 128c4 5 4 12 0 17s-12 5-17 0l-128-128c-13-13-33-13-46 0-6 7-9 15-9 23 0 8 3 16 9 22l128 128c5 5 5 12 0 17s-12 5-17 0l-128-128c-6-7-14-10-22-10v0c-9 0-17 3-22 10-13 13-13 33 0 45v0c0 0 0 0 0 0l128 128c4 5 4 12 0 17s-12 5-17 0l-128-128c-13-13-33-13-46 0h1l-1 1c-12 13-12 32 1 45l88 90c21-1 43 6 62 25l61 61c24-22 49-35 73-38 30-4 57 7 80 29 5 5 5 12 0 17s-12 5-17 0c-17-18-37-26-60-23-21 4-45 17-68 40-5 4-13 4-17 0l-68-69c-16-15-32-19-48-18-1 0-2 0-4 0-12 2-24 8-31 15-5 6-9 14-3 20 22 23 159 160 159 160 38 37 88 58 141 58 0 0 0 0 0 0 54 0 103-21 141-58s58-88 58-141c1-53-20-103-57-141z" horiz-adv-x="799.8" />

<glyph glyph-name="medical-provider" unicode="&#xe902;" d="M481 219h-156c-9 0-16 7-16 16v121h-121c-8 0-16 7-16 16v156c0 9 8 16 16 16h121v121c0 9 7 16 16 16h156c9 0 17-7 17-16v-121h120c9 0 16-7 16-16v-156c0-9-7-16-16-16h-120v-121c0-9-8-16-17-16z m-140 32h124v121c0 9 7 16 16 16h121v124h-121c-9 0-16 7-16 16v121h-124v-121c0-9-7-16-16-16h-120v-124h120c9 0 16-7 16-16v-121z m62-161c-198 0-360 162-360 360 0 199 162 360 360 360s360-161 360-360c0-198-161-360-360-360z m0 688c-180 0-327-147-327-328s147-328 327-328 328 147 328 328-147 328-328 328z" horiz-adv-x="799.8" />

<glyph glyph-name="mental-health" unicode="&#xe903;" d="M492 122h-284c0 0 0 0 0 0-8 0-15 6-16 15l-15 164-55 9c-8 1-14 8-14 16 0 2 1 4 2 6l58 138v50s0 1 0 1c5 75 39 141 91 187 46 41 107 66 173 66 140 0 255-111 260-250l0 0c0-3 0-6 0-9 0-91-47-172-119-218l-66-165c-3-6-8-10-15-10 0 0 0 0 0 0z m-269 32h258l63 159c1 4 4 6 7 8 66 41 110 113 110 195 0 126-102 228-227 228-59 0-113-23-153-60-46-40-77-98-81-163l0-55c0-2 0-4-1-6l-52-122 48-8c7-1 12-6 13-14z m269 264v0c-6 0-12 4-14 9l-62 131-48-69c-3-4-8-7-14-7 0 0 0 0 0 0h-106c-9 0-16 7-16 16s7 16 16 16h98l60 85c3 4 7 7 13 7 6 0 12-4 14-9l60-127 40 81c2 5 7 9 13 9 1 0 1 0 1 0 6 0 11-3 14-8l23-38h32c9 0 16-7 16-16s-7-16-16-16h-41c-6 0-11 3-14 8l-12 21-43-84c-2-6-8-9-14-9 0 0 0 0 0 0z" horiz-adv-x="799.8" />

<glyph glyph-name="nurse-clipboard" unicode="&#xe904;" d="M387 643c29 0 52-24 52-53 0-22-14-41-33-49v-14c-12-2-24-4-37-7 0 0-1-1-1-1v22c-20 8-34 27-34 49 0 29 24 53 53 53z m19-449v-8c0-11-9-19-19-19-11 0-19 8-19 19v97c7 3 15 4 23 6 4 1 8 1 13 2 0 0 1 0 2 1v-98z m33-8c-2 0-5 3-5 5 0 0 0 3-1 6-1 3-5 6-12 9v12c10-4 18-9 21-16 2-3 2-6 2-8 0-2 0-3 0-3 0-2-2-5-5-5z m37 162c0-2-1-4-1-6-1-2-2-4-3-5-4-7-10-12-16-15-7-4-13-6-20-8l0 0c0 0 0 0-1 0-2-1-4-1-6-2-1 0-1 0-2 0-2-1-4-1-6-2-11-2-22-4-33-6-10-2-20-4-30-8-2 0-4-1-5-2-3-1-5-2-7-4-4-2-8-4-10-8-5-5-6-13-5-21 1-8 5-14 11-19 3-2 7-4 11-6v-14c-6 2-13 5-19 9-4 4-8 7-11 12-3 4-5 10-6 15 0 3 0 6-1 8 0 3 0 6 1 9 1 6 4 12 7 17 4 5 9 8 13 12 5 2 9 5 14 6 1 1 1 1 2 1 0 0 0 0 0 0 10 4 21 7 32 9 11 3 21 5 32 8 4 0 8 2 12 3 6 2 12 4 18 7 8 5 11 11 10 19-1 3-2 5-6 8-3 3-7 5-12 7-6 2-12 3-18 5v21c8-2 17-4 25-7 6-3 12-6 18-11 6-4 11-12 12-20 1-2 1-4 1-6 0-2-1-4-1-6z m-108-16v127c5 1 9 3 15 4 8 2 15 3 23 4v-126c-4-1-8-2-12-3-4-1-8-2-13-3-4-1-9-2-13-3z m118 158c-7-1-13-8-23-8-22 0-20 6-36 4-2 0-4-1-6-1-13-2-27-4-42-7-8-2-16-4-25-7 0 0-1 0-1-1-2 0-4-1-6-2 0 0-1 0-1 0-1-1-3-1-4-2-1 0-2-1-3-1-1-1-2-1-3-2-2-1-3-2-5-3-7-4-13-10-15-15 0-2 0-3 0-5 0-1-1-3 0-4 0-2 1-3 2-5 1-1 1-2 3-4 2-2 6-5 10-7 4-2 9-4 14-5 2-1 5-2 8-2v-24c-5 1-10 2-15 3-6 2-11 4-17 7-6 2-12 6-17 11-3 2-5 5-7 9-2 3-4 6-5 10-1 4-1 8-1 11 0 4 0 8 1 12 1 3 3 7 4 10 1 1 2 3 3 4 1 1 2 3 4 4 2 2 4 5 6 7l4 3 4 2c9 6 19 11 28 14 10 4 19 6 28 9 17 4 34 7 48 9 2 0 4 1 6 1 21 3 41 4 56 3 15-1 26-4 26-10 2-12-15-17-23-18z m-32 299c-3 28-26 49-54 49s-51-21-54-49h-82v-95h272v95h-82z m103-30v-36h97v-611l-512 0v611h101v36h-133v-682h580v682z" horiz-adv-x="799.8" />

<glyph glyph-name="reminder" unicode="&#xe905;" d="M636 634c-9 4-18 7-26 10 9 3 19 6 29 10 73 27 137 80 119 127-5 14-21 37-75 37-29 0-64-7-99-20-35-14-66-32-88-51v30c0 40-33 73-73 73-40 0-73-33-73-73v-149c-10 4-20 7-31 7-20 0-38-8-51-22-14 14-32 22-52 22-32 0-59-20-69-49-11 6-23 9-35 9-40 0-73-32-73-72v-23h0v-221c0-126 102-229 229-229 126 0 228 103 228 229v262c21-18 48-35 77-48 38-17 76-26 107-26 46 0 62 20 67 32 6 13 11 40-24 76-21 22-52 43-87 59z m-130 58c8 17 41 45 93 65 30 12 60 18 84 18 24 0 34-6 35-9 3-8-24-46-94-72-30-12-60-18-84-18-24 0-34 6-35 9-1 1 0 3 1 7z m-53-57h-60v29h60v-29z m-30 172c17 0 30-14 30-30v-70h-60v70c0 16 13 30 30 30z m-104-215c17 0 31-14 31-30v-57c-23 4-40 5-41 5-5 0-12 0-20-1v53c0 16 14 30 30 30z m-134-30c0 16 14 30 31 30 16 0 30-14 30-30v-65c-16-11-29-29-29-61 0-24 12-39 29-49v-38c0-17-14-30-30-30-17 0-31 13-31 30v213z m-103-39c0 16 13 29 30 29 16 0 29-13 29-29v-137c0-16-13-30-29-30-17 0-30 14-30 30v137z m371-244c0-103-83-186-185-186-103 0-186 83-186 186v41c9-4 19-6 30-6 13 0 25 3 35 9 11-28 37-47 69-47 40 0 73 32 73 73v23c3-1 7-2 10-3 17-4 36-8 42-15 14-14 14-64 9-94-2-11 6-22 18-24 1 0 2-1 3-1 11 0 20 8 21 18 3 16 14 97-20 132-16 15-40 21-64 26-34 8-48 13-48 25 0 25 9 31 48 31 1 0 145-8 145-87v-101z m0 185c-13 11-31 20-54 28-2 1-4 2-6 2v98h60v-128z m255 53c-1-3-9-7-28-7-25 0-58 8-90 22-68 31-94 70-90 78 1 2 9 7 28 7 25 0 58-8 90-23 30-13 57-31 74-49 15-15 17-26 16-28z" horiz-adv-x="799.8" />

<glyph glyph-name="team" unicode="&#xe906;" d="M207 629c0-31-23-55-54-55-31 0-55 23-55 54 0 31 24 56 54 56 31 0 56-25 55-55z m-22-415c14 0 27 0 41 1 12 1 24 1 35 1 14 0 26 11 26 25s-12 26-26 26c-12 0-25-1-38-2-28-1-56-2-80 3-20 4-38 16-50 34-11 16-14 34-17 57 0 3-1 7-2 10l-16 111c-2 13-15 23-29 21-14-2-23-15-21-29l17-111c0-3 1-6 1-9 4-26 8-53 26-79 20-28 48-47 80-54 17-4 35-5 53-5z m204-41c-4 16-7 31-10 47-7 37-13 74-20 111-3 18-13 27-30 30-17 2-111 7-111 7l-4 81c0 4 0 9-1 13-1 17-2 33-5 49-3 19-14 34-29 41-8 4-17 6-26 5-1 0-1 0-2 0-29-4-50-29-48-60 3-49 8-98 9-147 0-46 25-67 70-67 42 0 78 0 119 0 9-25 12-50 19-74 5-17 7-34 13-50 6-16 17-28 36-22 16 5 23 18 20 36z m204 456c0-31 23-55 54-55 31 0 55 23 55 54 1 31-24 56-54 56-31 0-55-25-55-55z m22-415c-13 0-27 0-41 1-12 1-24 1-35 1-14 0-26 11-26 25s12 26 26 26c12 0 25-1 38-2 28-1 57-2 80 3 20 4 38 16 50 34 11 16 14 34 17 57 1 3 1 7 2 10l16 111c3 13 15 23 29 21 14-2 23-15 21-29l-17-111c0-3-1-6-1-9-4-26-8-53-26-79-19-28-48-47-79-54-18-4-36-5-54-5z m-203-41c3 16 6 31 9 47 7 37 14 74 20 111 3 18 13 27 31 30 16 2 110 7 110 7l4 81c0 4 0 9 1 13 1 17 2 33 5 49 3 19 14 34 29 41 8 4 17 6 27 5 0 0 0 0 1 0 30-4 50-29 48-60-3-49-8-98-8-147-1-46-26-67-71-67-42 0-78 0-119 0-9-25-12-50-19-74-5-17-7-34-13-50-6-16-17-28-35-22-17 5-24 18-20 36z m-92 436l-32-27v27h-19c-7 0-12 5-12 12v110c0 7 5 12 12 12h170c5 0 10-3 11-8 1-1 1-3 1-4v-110c0-7-5-12-12-12h-101l1-4c2-6 4-11 7-16 4-7 9-13 15-20 2-2 4-4 6-5 15-12 31-20 50-23 6-1 12-2 18-2 6-1 12 0 18 0 2 0 4 0 5 1l1 0 0 0c4-3 8-6 13-8 3-2 5-3 7-4 12-5 25-8 38-8h2c3 0 6 0 8 1 1 1 2 1 2 2 2 0 3 2 5 3 0 1 1 1 1 2 2 3 3 6 4 8 0 1 0 2 0 3 0 2 0 3 0 4-1 2-2 4-3 7-2 4-5 9-8 14l-2 5c8 6 14 13 19 20 4 7 8 14 10 21 3 7 4 15 5 24 0 3 0 7-1 10 0 1 0 2 0 4l0 1c-1 10-6 20-8 23l-2 3c-2 4-4 8-7 10-8 10-18 18-30 25-7 4-18 7-25 10v0-21l1-1c6-2 10-4 15-6 9-5 17-12 24-19 1-2 3-4 4-6l2-4c1-2 5-10 6-17 0-1 0-2 0-2l0-2c1-3 1-5 1-8-1-6-2-12-4-18-2-5-4-11-8-15-4-6-9-12-15-17l-3-2c-2-2-6-6-5-14 0-2 1-5 3-8l4-8c2-4 4-8 6-12 0 0 0 0 1 0l-1 0c-11 1-21 3-31 7-2 1-4 2-6 3-3 2-7 4-11 6-2 2-4 3-6 3-3 1-5 1-7 1l-2-1c-1 0-2 0-3 0-6 0-11 0-16 0-6 0-11 1-15 2-13 2-24 6-34 13-2 2-5 3-7 5-3 3-6 6-9 8h68c19 0 33 15 33 34v110c0 2 0 3 0 5-2 16-16 29-33 29h-170c-19 0-34-15-34-34v-110c0-18 14-32 32-33v-52l61 52-8 21z" horiz-adv-x="799.8" />

<glyph glyph-name="pencil" unicode="&#xe907;" d="M844 850c86 0 156-70 156-156 0-35-12-68-31-94l-63-62-218 218 62 63c26 19 59 31 94 31z m-781-719l-63-281 281 62 578 579-218 218-578-578z m636 364l-438-438-54 54 438 438 54-54z" horiz-adv-x="1000" />

<glyph glyph-name="arrow-circled-down" unicode="&#xe908;" d="M500-150c-276 0-500 224-500 500s224 500 500 500c276 0 500-224 500-500s-224-500-500-500z m318 586c0 3-1 6-3 9l-89 88c-6 6-12 6-18 0l-193-193-193 193c-6 6-12 6-18 0l-88-88c-6-6-6-12 0-18l290-291c6-6 12-6 18 0l291 291c2 3 3 6 3 9z" horiz-adv-x="1000" />

<glyph glyph-name="arrow-circled-right" unicode="&#xe909;" d="M500-150c-276 0-500 224-500 500s224 500 500 500c276 0 500-224 500-500s-224-500-500-500z m-56 818c-2 0-5-1-9-3l-88-89c-6-6-6-12 0-18l193-193-193-193c-6-6-6-12 0-18l88-88c6-6 13-6 19 0l290 290c6 6 6 12 0 18l-290 291c-4 2-7 3-10 3z" horiz-adv-x="1000" />

<glyph glyph-name="move" unicode="&#xe90a;" d="M562 665v-252h250v125l188-188-188-188v128h-250v-252h126l-188-188-188 188h125v252h-250v-127l-187 187 187 187v-124h250v252h-122l185 185 185-185h-123z" horiz-adv-x="1000" />

<glyph glyph-name="settings_backup_restore" unicode="&#xe90b;" d="M500 704c207 0 375-168 375-375s-168-375-375-375c-86 0-166 29-228 78l58 59c49-33 108-53 170-53 162 0 291 129 291 291s-129 291-291 291-291-129-291-291h125l-168-166-166 166h125c0 207 168 375 375 375z m84-375c0-45-39-84-84-84s-84 39-84 84 39 84 84 84 84-39 84-84z" horiz-adv-x="1000" />

<glyph glyph-name="envelope-o" unicode="&#xe90c;" d="M929 2v428c-12-13-25-25-39-36-80-62-160-124-238-189-41-35-93-78-151-78h-2c-58 0-109 43-151 78-78 65-158 127-238 189-14 11-27 23-39 36v-428c0-10 9-18 18-18h822c9 0 18 8 18 18z m0 586c0 14 3 39-18 39h-822c-9 0-18-9-18-18 0-64 32-119 83-159 74-58 149-117 223-176 30-24 83-76 122-76h2c39 0 92 52 122 76 74 59 149 118 224 176 36 29 82 91 82 138z m71 21v-607c0-49-40-90-89-90h-822c-49 0-89 41-89 90v607c0 49 40 89 89 89h822c49 0 89-40 89-89z" horiz-adv-x="1000" />

<glyph glyph-name="home3" unicode="&#xe90d;" d="M1000 256l-187 188v281h-125v-156l-188 187-500-500v-31h125v-313h313v188h125v-188h312v313h125z" horiz-adv-x="1000" />

<glyph glyph-name="group, users" unicode="&#xe90e;" d="M331 341c-58-2-111-27-148-71h-75c-55 0-108 26-108 88 0 46-2 197 69 197 12 0 70-47 145-47 26 0 51 4 75 13-2-12-3-25-3-37 0-51 16-101 45-143z m598-355c0-91-60-145-149-145h-488c-89 0-149 54-149 145 0 126 29 319 193 319 19 0 88-77 200-77s181 77 200 77c163 0 193-193 193-319z m-572 712c0-78-64-143-143-143s-143 65-143 143 65 143 143 143 143-64 143-143z m393-214c0-118-96-214-214-214s-215 96-215 214 96 214 215 214 214-96 214-214z m321-126c0-62-52-88-108-88h-75c-37 44-89 69-147 71 29 42 45 92 45 143 0 12-1 25-3 37 24-9 49-13 74-13 76 0 134 47 145 47 71 0 69-151 69-197z m-71 340c0-78-64-143-143-143s-143 65-143 143 65 143 143 143 143-64 143-143z" horiz-adv-x="1071.3" />

<glyph glyph-name="child" unicode="&#xe90f;" d="M663 535l-163-163v-460c0-34-28-62-62-62s-63 28-63 62v215h-36v-215c0-34-28-62-62-62s-63 28-63 62v460l-163 163c-20 22-20 55 0 76 22 21 55 21 76 0l128-127h205l127 127c21 21 55 21 76 0 21-21 21-54 0-76z m-181 92c0-69-56-125-125-125s-125 56-125 125 56 125 125 125 125-56 125-125z" horiz-adv-x="713.9" />

<glyph glyph-name="user2" unicode="&#xe910;" d="M714 60c0-81-53-148-119-148h-476c-65 0-119 67-119 148 0 147 36 317 183 317 45-44 106-72 174-72s130 28 175 72c146 0 182-170 182-317z m-143 495c0-118-96-214-214-214s-214 96-214 214 96 215 214 215 214-96 214-215z" horiz-adv-x="713.9" />

<glyph glyph-name="house" unicode="&#xe911;" d="M1008 375c-3 5-5 9-8 13l0 0-9 9s-3 3-9 10l-100 99v29q0 56 0 113c0 2 0 5 0 9 0 6-1 11-2 16l0 0c-5 16-14 29-27 38l0 0c-12 9-27 15-43 15h0c-4 0-9-1-12-1l0 0c-18-3-34-13-45-26l0 0c-10-13-16-29-16-47 0 0 0-1 0-1v0l-171 171c-7 7-15 14-24 19l0 0c-10 5-21 9-33 9s-24-4-34-9l0 0c-9-5-17-11-24-19l-424-423c-2-2-5-5-9-10-11-12-18-29-18-47l0-1c0-30 19-57 46-68l0 0c8-3 17-5 26-5h0c0 0 0 0 0 0 11 0 22 3 31 7l0 0c10 5 18 11 25 18l380 380q115-114 229-228 0-160 0-319v-130h-457v156q0 41 0 81c0 2 0 5 0 9 0 6-1 11-3 16l0 0c-8 30-36 53-70 53 0 0 0 0 0 0h0c-4 0-8-1-12-1l0 0c-18-3-33-13-44-26l0 0c-10-13-16-29-16-47 0 0 0 0 0-1v0-309c0 0 0-1 0-1 0-10 1-20 4-29l0 1c6-20 21-35 40-42l0 0c10-4 20-6 32-6 0 0 1 0 1 0l0 0h593c0 0 1 0 1 0 10 0 20 2 29 4l-1 0c8 3 16 7 22 12l0 0c9 7 17 17 21 29l0 0c4 9 6 20 6 32 0 0 0 1 0 1l0 0v371l9-9c14-13 32-22 52-22h0c0 0 0 0 0 0 34 0 63 24 71 55l0 0c1 6 2 12 2 18l0 0c0 13-3 24-9 34l0 0z" horiz-adv-x="1016.6" />

<glyph glyph-name="minus-circle" unicode="&#xe912;" d="M679 305v72c0 19-17 36-36 36h-429c-19 0-35-17-35-36v-72c0-19 16-35 35-35h429c19 0 36 16 36 35z m178 36c0-236-192-429-428-429s-429 193-429 429 192 429 429 429 428-192 428-429z" horiz-adv-x="857.4" />

<glyph glyph-name="undo, go, break, return" unicode="&#xe913;" d="M875 600v-625h-750v125h625v375h-190l115-114-89-89-265 265 265 266 89-89-115-114h315z" horiz-adv-x="1000" />

<glyph glyph-name="times-circle-o" unicode="&#xe914;" d="M467 785c81 0 156-20 226-61s124-95 165-165c40-69 61-144 61-226s-21-156-61-226c-41-69-96-124-165-165s-145-61-226-61c-82 0-157 21-226 61s-125 96-165 165c-41 70-61 145-61 226s20 157 61 226c40 70 95 125 165 165s144 61 226 61z m0-816c65 0 126 16 182 49s100 77 133 133c33 56 49 117 49 182s-16 127-49 183c-33 56-77 100-133 133s-117 49-182 49c-66 0-127-16-183-49s-100-77-133-133c-32-56-49-117-49-183s17-126 49-182c33-56 78-100 133-133s117-49 183-49z m73 364l113-113c3-4 5-10 5-16s-2-11-5-15l-42-42c-4-3-9-5-15-5s-11 2-16 5l-113 113-113-113c-5-3-11-5-17-5s-11 2-14 5l-42 42c-4 4-6 9-6 15s2 12 6 16l113 113-113 113c-4 5-6 11-6 17s2 11 6 14l42 42c3 4 8 6 14 6s12-2 17-6l113-113 113 113c5 4 10 6 16 6s11-2 15-6l42-42c3-3 5-8 5-14s-2-12-5-17l-113-113z" horiz-adv-x="933.6" />

<glyph glyph-name="check-circle" unicode="&#xe915;" d="M717 432c0 9-4 18-10 25l-51 50c-7 7-16 11-25 11s-19-4-25-11l-228-227-126 126c-7 7-16 11-25 11s-19-4-25-11l-51-50c-7-7-10-16-10-25s3-19 10-26l202-202c6-6 16-10 25-10 9 0 19 4 26 10l303 303c6 7 10 16 10 26z m140-91c0-236-192-429-428-429s-429 193-429 429 192 429 429 429 428-192 428-429z" horiz-adv-x="857.4" />

<glyph glyph-name="award" unicode="&#xe916;" d="M822 360l82-80c12-12 16-26 11-42s-15-26-31-30l-112-28 32-111c5-17 1-31-11-43s-26-16-43-11l-111 32-28-113c-4-16-14-27-31-31s-30 0-41 12l-81 82-80-82c-12-12-26-16-42-12s-26 15-30 31l-28 113-111-32c-17-5-31-1-43 11s-16 26-11 43l32 111-113 28c-15 4-25 14-30 30s-1 30 11 42l82 80-82 81c-12 12-16 26-11 42s15 26 30 30l113 28-32 111c-5 17-1 31 11 43s26 16 43 11l111-32 28 113c4 16 14 27 31 31s30 0 41-12l80-84 81 84c12 12 26 16 42 11s26-15 30-30l28-113 111 32c17 5 31 1 43-11s16-26 11-43l-32-111 112-28c16-4 26-14 31-30s1-30-11-42l-82-81z" horiz-adv-x="917" />

<glyph glyph-name="clip-board-check" unicode="&#xe917;" d="M602 704c23 0 44-8 60-25s26-37 26-61v-630c0-24-9-44-26-61s-37-25-60-25h-516c-24 0-44 8-61 25s-25 37-25 61v630c0 24 8 44 25 61s37 25 61 25h143c0 31 12 58 34 81s50 34 81 34c31 0 58-12 80-34s34-50 34-81h144z m-258 43c-12 0-22-4-31-12s-12-19-12-31c0-12 4-22 12-30s19-13 31-13c12 0 22 4 30 13s13 18 13 30c0 12-4 22-13 31s-18 12-30 12z m216-415c5 5 8 10 8 16s-3 11-8 14l-50 52c-3 4-8 6-14 6s-11-2-16-6l-190-188-82 83c-4 3-9 5-15 6s-11-2-16-6l-50-51c-5-4-7-10-7-16s2-10 7-14l147-149c5-4 10-7 16-7s11 2 14 6l256 254z" horiz-adv-x="750" />

<glyph glyph-name="file-drawn" unicode="&#xe918;" d="M390 60c8-13 17-24 29-32s25-11 39-11h230v-72c0-12-5-22-13-30s-18-13-30-13h-602c-12 0-22 4-30 13s-13 18-13 30v831c0 12 4 22 13 30s18 13 30 13h358v-244c0-12 4-22 13-30s18-13 30-13h244v-84l-230-227v-147c-7 1-12 5-16 13-10 20-28 33-53 38s-47 1-65-13l-25 73c-4 10-9 17-16 22s-16 8-25 8c-10 0-18-2-25-8s-13-12-16-22l-33-97c-3-9-10-14-19-14h-22c-8 0-15-3-20-8s-8-12-8-21c0-8 2-15 8-20s12-8 20-8h22c16 0 32 4 45 14s23 23 28 39l20 56 30-90c4-12 12-18 25-19s22 4 27 16l15 27c3 7 9 10 17 10s15-3 18-10z m298 540v-10h-230v229h11c12 0 22-4 31-13l175-175c8-9 13-19 13-31z m-172-402l292 290 121-122-290-292h-123v124z m503 322c8-10 12-21 12-33s-4-23-12-32l-50-50-122 122 50 50c8 8 19 13 31 13s24-5 33-13l58-57z" horiz-adv-x="1083" />

<glyph glyph-name="group-alt" unicode="&#xe91a;" d="M206 431c-37 0-69 14-96 41s-41 60-41 97c0 37 13 69 41 96s59 41 96 41c38 0 70-13 97-41s41-59 41-96c0-37-14-70-41-97s-59-41-97-41z m963 0c-37 0-70 14-97 41s-41 60-41 97c0 37 14 69 41 96s60 41 97 41c37 0 69-13 96-41s41-59 41-96c0-37-13-70-41-97s-59-41-96-41z m69-68c37 0 69-14 96-41s41-60 41-97v-69c0-18-7-34-20-48s-30-20-49-20h-141c-8 50-26 96-54 137s-65 74-108 97c28 27 60 41 97 41h138z m-550 0c-43 0-84 10-121 32s-66 51-88 88c-21 37-32 77-32 120s11 83 32 120c22 38 51 67 88 89s78 32 121 32c43 0 83-11 120-32s66-51 88-89c21-37 32-77 32-120s-11-83-32-120c-22-37-51-67-88-88s-77-32-120-32z m165-69c44 0 86-11 124-34s68-52 90-90c22-38 33-79 33-123v-63c0-28-10-53-30-73s-44-30-73-30h-619c-28 0-53 10-73 30s-30 45-30 73v63c0 44 11 85 33 123s53 68 91 90c38 23 79 34 123 34h17c49-23 98-35 149-35s99 12 148 35h17z m-481 28c-43-23-79-55-108-97s-46-87-53-137h-142c-19 0-35 6-49 20s-20 30-20 48v69c0 37 14 70 41 97s59 41 97 41h137c37 0 70-14 97-41z" horiz-adv-x="1400.4" />

<glyph glyph-name="medkit" unicode="&#xe91b;" d="M940 608c26 0 48-9 66-27s27-40 27-66v-563c0-26-9-48-27-66s-40-28-66-28h-813c-26 0-48 9-66 28s-28 40-28 66v563c0 26 9 48 28 66s40 27 66 27h156v94c0 26 9 48 28 67s40 27 66 27h313c26 0 48-9 66-27s27-41 27-67v-94h157z m-532 63v-63h250v63h-250z m313-484v93c0 4-2 8-5 11s-7 5-11 5h-109v109c0 4-2 8-5 11s-7 5-11 5h-93c-4 0-8-2-11-5s-5-7-5-11v-109h-109c-4 0-8-2-11-5s-5-7-5-11v-93c0-4 2-8 5-11s7-5 11-5h109v-109c0-4 2-8 5-11s7-5 11-5h93c4 0 8 2 11 5s5 7 5 11v109h109c4 0 8 2 11 5s5 7 5 11z" horiz-adv-x="1066.4" />

<glyph glyph-name="passport" unicode="&#xe91c;" d="M233 504c5 27 15 52 32 74s38 39 63 51c-15-35-23-76-25-125h-70z m0-58h70c2-49 10-90 25-125-25 12-46 29-63 51s-27 47-32 74z m168-141c-8 8-17 24-25 47-10 27-15 59-16 94h82c-1-35-6-67-16-94-8-23-17-39-25-47z m-41 199c1 36 6 67 16 95 8 22 17 38 25 46 8-8 17-24 25-46 10-28 15-59 16-95h-82z m114-183c15 35 23 76 26 125h69c-4-27-15-52-32-74s-37-39-63-51z m271 498c15 0 29-6 40-17s17-25 17-40v-803c0-15-6-29-17-40s-25-17-40-17h-630c-33 0-60 11-82 33s-33 49-33 82v687c0 32 11 60 33 82s49 33 82 33h630z m-143-745c8 0 15 3 20 8s8 12 8 21c0 8-2 15-8 20s-12 8-20 8h-401c-9 0-16-2-21-8s-8-12-8-20c0-9 3-16 8-21s12-8 21-8h401z m-201 172c42 0 80 10 116 30s63 48 83 84c20 35 30 73 30 115s-10 80-30 116c-20 35-48 62-83 83s-74 30-116 30c-42 0-80-10-115-30s-63-48-84-83c-20-36-30-74-30-116s10-80 30-115c21-36 48-63 84-84s73-30 115-30z m73 383c26-12 46-29 63-51s28-47 32-74h-69c-3 49-11 90-26 125z" horiz-adv-x="833" />

<glyph glyph-name="star" unicode="&#xe91d;" d="M464 787c7 14 17 23 31 28s28 5 41 0c14-5 24-14 32-28l116-237 261-37c16-3 28-10 37-22s13-25 13-39c-1-15-7-27-17-38l-190-184 45-262c2-14-1-27-8-40s-19-21-34-24c-14-4-28-2-41 5l-234 122-235-122c-13-7-27-9-41-5s-25 11-33 24c-8 13-11 26-8 40l45 262-190 184c-11 11-17 23-17 38s3 27 12 39c9 12 21 19 37 22l261 37 117 237z" horiz-adv-x="1000" />

<glyph glyph-name="map" unicode="&#xe91e;" d="M542 800c41 0 79-10 115-31s63-49 83-84c21-35 31-73 31-115 0-45-27-108-82-191-35-52-77-108-125-166-6-7-14-11-22-11s-16 4-22 11c-49 58-91 114-126 166-55 83-82 146-82 191 0 42 10 80 31 115s49 63 84 84c35 21 73 31 115 31z m0-306c20 0 38 7 53 23s23 33 23 53c0 21-7 39-23 54s-33 23-53 23c-21 0-39-8-54-23s-23-33-23-54c0-20 8-38 23-53s33-23 54-23z m-489-88l217 88c9-27 21-55 38-86v-425l-251-115c-10-3-19-2-28 4s-12 14-12 24v456c0 12 3 23 10 32s15 17 26 22z m489-262c26 0 49 10 67 31 40 48 76 95 108 140v-448l-350 116v332c31-45 67-92 107-140 18-21 41-31 68-31z m485 363c9 3 18 2 27-4s13-14 13-24v-456c0-12-4-23-10-32s-16-17-27-22l-255-102v525l252 115z" horiz-adv-x="1066.4" />

<glyph glyph-name="child1" unicode="&#xe91f;" d="M252 669c0 36 13 67 38 93s57 38 93 38c37 0 68-13 93-38s39-57 39-93c0-37-13-68-39-93s-56-38-93-38c-36 0-67 12-93 38s-38 56-38 93z m465-2c11-12 16-26 16-42s-5-30-16-42l-173-171v-487c0-16-6-30-18-41s-25-17-41-17h-29c-15 0-29 5-41 17s-17 25-17 41v204h-29v-204c0-16-6-30-18-41s-25-17-41-17h-29c-15 0-29 5-41 17s-17 25-17 41v487l-173 171c-11 12-17 26-17 42s6 30 18 41c11 12 25 17 41 17s29-5 42-16l156-159h186l157 159c12 11 26 16 42 16s30-5 42-16z" horiz-adv-x="733.4" />

<glyph glyph-name="angle-down" unicode="&#xe920;" d="M600 430c0-4-2-9-6-12l-260-260c-3-4-8-6-13-6s-9 2-12 6l-260 260c-4 3-6 8-6 12s2 10 6 13l28 28c3 3 7 6 12 6 5 0 10-3 13-6l219-219 220 219c3 3 8 6 13 6s9-3 12-6l28-28c4-3 6-8 6-13z" horiz-adv-x="642.6" />

<glyph glyph-name="file-text" unicode="&#xe922;" d="M844 850h-750c-52 0-94-42-94-94v-812c0-52 42-94 94-94h750c51 0 94 42 94 94v812c0 52-43 94-94 94z m-31-875h-688v750h688v-750z m-563 438h438v-63h-438z m0-125h438v-63h-438z m0-125h438v-63h-438z m0 375h438v-63h-438z" horiz-adv-x="1000" />

<glyph glyph-name="clock-o" unicode="&#xe925;" d="M500 538v-250c0-10-8-18-18-18h-178c-10 0-18 8-18 18v35c0 10 8 18 18 18h125v197c0 10 7 17 17 17h36c10 0 18-7 18-17z m232-197c0 168-136 304-303 304s-304-136-304-304 136-303 304-303 303 136 303 303z m125 0c0-236-192-429-428-429s-429 193-429 429 192 429 429 429 428-192 428-429z" horiz-adv-x="857.4" />

<glyph glyph-name="stop" unicode="&#xe927;" d="M857 734v-786c0-19-16-36-36-36h-785c-20 0-36 17-36 36v786c0 20 16 36 36 36h785c20 0 36-16 36-36z" horiz-adv-x="857.4" />

<glyph glyph-name="check" unicode="&#xe929;" d="M933 525c0-14-6-28-16-38l-480-480c-10-10-24-15-38-15s-28 5-38 15l-278 278c-10 10-15 24-15 38s5 28 15 38l76 76c10 10 24 16 38 16s28-6 38-16l164-165 366 367c10 10 24 16 38 16s28-6 38-16l76-76c10-10 16-24 16-38z" horiz-adv-x="1000" />

<glyph glyph-name="copy" unicode="&#xe92c;" d="M625 600v250h-437l-188-187v-563h375v-250h625v750h-375z m-437 162v-99h-100l100 99z m-125-599v437h187v188h313v-188l-188-187v-250h-312z m500 349v-99h-100l100 99z m375-600h-500v438h187v188h313v-626z" horiz-adv-x="1000" />

<glyph glyph-name="bell" unicode="&#xe951;" d="M1002 69c0 281-250 219-250 437 0 18-2 34-5 47-17 110-90 199-186 226 1 4 2 8 2 12 0 32-29 59-63 59s-62-27-62-59c0-4 0-8 1-12-107-30-187-138-189-267 0-2 0-4 0-6 0-218-250-156-250-437 0-75 167-137 390-153 21-39 62-66 110-66s89 27 110 66c223 16 390 78 390 153 0 0 0 0 0 0l2 0z m-195-53c-53-14-115-24-182-30-6 64-60 114-125 114s-119-50-124-114c-67 6-130 16-183 30-73 19-108 41-120 53 12 11 47 33 120 53 85 22 194 35 307 35s222-13 307-35c73-20 108-42 120-53-12-12-47-34-120-53z" horiz-adv-x="1000" />

<glyph glyph-name="calendar" unicode="&#xe953;" d="M313 475h125v-125h-125z m187 0h125v-125h-125z m188 0h125v-125h-125z m-563-375h125v-125h-125z m188 0h125v-125h-125z m187 0h125v-125h-125z m-187 188h125v-125h-125z m187 0h125v-125h-125z m188 0h125v-125h-125z m-563 0h125v-125h-125z m688 562v-62h-125v62h-438v-62h-125v62h-125v-1000h938v1000h-125z m62-938h-812v688h812v-688z" horiz-adv-x="1000" />

<glyph glyph-name="printer" unicode="&#xe954;" d="M250 788h500v-125h-500v125z m688-188h-875c-35 0-63-28-63-62v-313c0-34 28-62 63-62h187v-251h500v251h188c34 0 62 28 62 62v313c0 34-28 62-62 62z m-813-187c-34 0-62 28-62 62s28 63 62 63 63-28 63-63-28-62-63-62z m563-438h-375v313h375v-313z" horiz-adv-x="1000" />

<glyph glyph-name="database" unicode="&#xe964;" d="M500 850c-276 0-500-70-500-156v-125c0-86 224-156 500-156s500 70 500 156v125c0 86-224 156-500 156z m0-531c-276 0-500 70-500 156v-187c0-87 224-157 500-157s500 70 500 157v187c0-86-224-156-500-156z m0-281c-276 0-500 70-500 156v-188c0-86 224-156 500-156s500 70 500 156v188c0-86-224-156-500-156z" horiz-adv-x="1000" />

<glyph glyph-name="user" unicode="&#xe971;" d="M563 160v52c68 38 125 135 125 232 0 155 0 281-188 281s-187-126-187-281c0-97 56-194 125-232v-52c-212-17-375-122-375-248h875c0 126-163 231-375 248z" horiz-adv-x="1000" />

<glyph glyph-name="users2" unicode="&#xe972;" d="M750 97v52c69 39 125 136 125 232 0 156 0 282-187 282s-188-126-188-282c0-96 56-193 125-232v-52c-212-17-375-121-375-247h875c0 126-163 230-375 247z m-430-24c54 36 121 63 195 79-15 17-28 37-40 58-30 53-45 113-45 171 0 84 0 164 30 229 29 63 81 102 155 116-16 75-60 124-177 124-188 0-188-126-188-281 0-97 56-194 125-232v-52c-212-17-375-122-375-247h273c14 12 29 24 47 35z" horiz-adv-x="1125" />

<glyph glyph-name="enlarge2" unicode="&#xe98b;" d="M1000 850v-406l-156 156-188-187-93 93 187 188-156 156z m-562-656l-188-188 156-156h-406v406l156-156 188 188z" horiz-adv-x="1000" />

<glyph glyph-name="shrink2" unicode="&#xe98c;" d="M438 288v-407l-157 157-187-188-94 94 188 187-157 157z m562 468l-187-187 156-156h-406v406l156-156 187 187z" horiz-adv-x="1000" />

<glyph glyph-name="lock" unicode="&#xe98f;" d="M578 413h-15v187c0 103-85 188-188 188h-125c-103 0-187-85-187-188v-187h-16c-26 0-47-22-47-47v-469c0-26 21-47 47-47h531c26 0 47 21 47 47v469c0 25-21 47-47 47z m-390 187c0 35 28 63 62 63h125c35 0 63-28 63-63v-187h-250v187z" horiz-adv-x="1000" />

<glyph glyph-name="unlocked" unicode="&#xe990;" d="M750 788c103 0 188-85 188-188v-187h-125v187c0 35-28 63-63 63h-125c-34 0-62-28-62-63v-187h15c26 0 47-22 47-47v-469c0-26-21-47-47-47h-531c-26 0-47 21-47 47v469c0 25 21 47 47 47h391v187c0 103 84 188 187 188h125z" horiz-adv-x="1000" />

<glyph glyph-name="equalizer" unicode="&#xe992;" d="M438 725v16c0 25-22 47-47 47h-157c-25 0-46-22-46-47v-16h-188v-125h188v-16c0-25 21-46 46-46h157c25 0 47 21 47 46v16h562v125h-562z m-188-125v125h125v-125h-125z m563-172c0 26-22 47-47 47h-157c-25 0-46-21-46-47v-15h-563v-125h563v-16c0-26 21-47 46-47h157c25 0 47 21 47 47v16h187v125h-187v15z m-188-140v125h125v-125h-125z m-187-172c0 25-22 47-47 47h-157c-25 0-46-22-46-47v-16h-188v-125h188v-16c0-25 21-47 46-47h157c25 0 47 22 47 47v16h562v125h-562v16z m-188-141v125h125v-125h-125z" horiz-adv-x="1000" />

<glyph glyph-name="cog" unicode="&#xe994;" d="M912 254c-53 91-21 207 70 260l-98 171c-28-17-61-26-95-26-105 0-191 85-191 191h-196c0-33-8-66-25-96-53-91-170-122-261-69l-98-170c28-16 52-40 70-70 52-91 21-207-70-260l98-170c28 16 61 25 95 25 105 0 190-85 190-190h197c0 32 8 65 25 95 53 91 169 122 260 69l99 171c-28 16-53 39-70 69z m-412-106c-112 0-202 90-202 202 0 112 90 203 202 203 112 0 203-91 203-203 0-112-91-202-203-202z" horiz-adv-x="1000" />

<glyph glyph-name="list-numbered" unicode="&#xe9b9;" d="M375 38h625v-126h-625z m0 375h625v-125h-625z m0 375h625v-125h-625z m-187 62v-250h-63v188h-62v62z m-63-514v-48h125v-63h-187v143l125 58v49h-125v63h187v-143z m125-173v-313h-187v62h125v63h-125v63h125v62h-125v63z" horiz-adv-x="1000" />

<glyph glyph-name="list" unicode="&#xe9ba;" d="M0 850h250v-250h-250z m375-62h625v-125h-625z m-375-313h250v-250h-250z m375-62h625v-125h-625z m-375-313h250v-250h-250z m375-62h625v-126h-625z" horiz-adv-x="1000" />

<glyph glyph-name="list2" unicode="&#xe9bb;" d="M375 788h625v-125h-625v125z m0-375h625v-125h-625v125z m0-375h625v-126h-625v126z m-375 687c0 69 56 125 125 125s125-56 125-125c0-69-56-125-125-125s-125 56-125 125z m0-375c0 69 56 125 125 125s125-56 125-125c0-69-56-125-125-125s-125 56-125 125z m0-375c0 69 56 125 125 125s125-56 125-125c0-69-56-125-125-125s-125 56-125 125z" horiz-adv-x="1000" />

<glyph glyph-name="menu" unicode="&#xe9bd;" d="M63 663h875v-188h-875z m0-250h875v-188h-875z m0-250h875v-188h-875z" horiz-adv-x="1000" />

<glyph glyph-name="download2" unicode="&#xe9c5;" d="M875 350h-156l-219-219-219 219h-156l-125-250v-62h1000v62l-125 250z m-875-375h1000v-63h-1000v63z m563 563v250h-125v-250h-219l281-282 281 282h-218z" horiz-adv-x="1000" />

<glyph glyph-name="upload2" unicode="&#xe9c6;" d="M0-25h1000v-63h-1000z m1000 125v-62h-1000v62l125 250h250v-125h250v125h250z m-781 438l281 281 281-281h-218v-250h-125v250z" horiz-adv-x="1000" />

<glyph glyph-name="flag" unicode="&#xe9cc;" d="M0 850h125v-1000h-125v1000z m813-628c80 0 150 20 187 48v500c-37-28-107-48-187-48s-151 20-188 48v-500c37-28 107-48 188-48z m-219 596c-46 20-113 32-188 32-94 0-176-19-218-48v-500c42 29 124 48 218 48 75 0 142-12 188-32v500z" horiz-adv-x="1000" />

<glyph glyph-name="eye" unicode="&#xe9ce;" d="M500 663c-218 0-407-127-500-313 93-185 282-312 500-312 218 0 407 127 500 312-93 186-282 313-500 313z m247-166c58-38 108-88 146-147-38-59-88-109-146-147-74-47-159-72-247-72-87 0-173 25-246 72-59 38-109 88-146 147 37 59 87 109 146 147 3 2 7 5 11 7-10-27-15-56-15-86 0-138 112-250 250-250 138 0 250 112 250 250 0 30-5 59-15 86 4-2 8-5 12-7v0z m-247-53c0-52-42-94-94-94s-93 42-93 94 42 94 93 94 94-42 94-94z" horiz-adv-x="1000" />

<glyph glyph-name="eye-blocked" unicode="&#xe9d1;" d="M924 836c-18 19-48 19-66 0l-198-197c-51 15-104 24-160 24-218 0-407-127-500-313 40-80 98-149 169-202l-155-156c-19-18-19-48 0-66 9-9 21-14 33-14s24 5 33 14l844 844c18 18 18 48 0 66z m-518-298c42 0 77-27 89-64l-119-119c-37 13-63 48-63 89 0 52 42 94 93 94z m-298-188c37 59 87 109 146 147 3 2 7 5 11 7-10-27-15-56-15-86 0-53 17-103 46-144l-60-59c-51 36-95 82-128 135z m642 68c0 27-4 52-12 76l-314-314c24-7 50-12 76-12 138 0 250 112 250 250z m61 149l-68-68c1-1 2-1 4-2 58-38 108-88 146-147-38-59-88-109-146-147-74-47-159-72-247-72-38 0-75 5-111 14l-75-75c58-21 121-32 186-32 218 0 407 127 500 312-44 88-109 163-189 217z" horiz-adv-x="1000" />

<glyph glyph-name="warning" unicode="&#xea07;" d="M500 759l419-835h-838l419 835z m0 91c-22 0-43-14-59-44l-427-850c-33-58-5-106 62-106h849c66 0 94 48 61 106h0l-426 850c-17 30-38 44-60 44v0z m63-812c0-35-28-63-63-63s-62 28-62 63c0 34 28 62 62 62s63-28 63-62z m-63 125c-34 0-62 28-62 62v188c0 34 28 62 62 62s63-28 63-62v-188c0-34-28-62-63-62z" horiz-adv-x="1000" />

<glyph glyph-name="notification" unicode="&#xea08;" d="M500 756c-108 0-210-42-287-119s-119-178-119-287c0-108 42-210 119-287s179-119 287-119c109 0 211 42 287 119s119 179 119 287c0 109-42 211-119 287s-178 119-287 119z m0 94v0c276 0 500-224 500-500s-224-500-500-500c-276 0-500 224-500 500s224 500 500 500z m-62-687h125v-125h-125z m0 500h125v-375h-125z" horiz-adv-x="1000" />

<glyph glyph-name="question" unicode="&#xea09;" d="M438 163h125v-125h-125z m250 437c34 0 62-28 62-62v-188l-187-125h-125v63l187 125v62h-312v125h375z m-188 156c-108 0-210-42-287-119s-119-178-119-287c0-108 42-210 119-287s179-119 287-119c109 0 211 42 287 119s119 179 119 287c0 109-42 211-119 287s-178 119-287 119z m0 94v0c276 0 500-224 500-500s-224-500-500-500c-276 0-500 224-500 500s224 500 500 500z" horiz-adv-x="1000" />

<glyph glyph-name="plus" unicode="&#xea0a;" d="M969 475h-344v344c0 17-14 31-31 31h-188c-17 0-31-14-31-31v-344h-344c-17 0-31-14-31-31v-188c0-17 14-31 31-31h344v-344c0-17 14-31 31-31h188c17 0 31 14 31 31v344h344c17 0 31 14 31 31v188c0 17-14 31-31 31z" horiz-adv-x="1000" />

<glyph glyph-name="minus" unicode="&#xea0b;" d="M0 444v-188c0-17 14-31 31-31h938c17 0 31 14 31 31v188c0 17-14 31-31 31h-938c-17 0-31-14-31-31z" horiz-adv-x="1000" />

<glyph glyph-name="info" unicode="&#xea0c;" d="M438 553c0 26 21 47 46 47h32c25 0 47-21 47-47v-31c0-26-22-47-47-47h-32c-25 0-46 21-46 47v31z m187-453h-250v63h63v187h-63v63h188v-250h62z m-125 750c-276 0-500-224-500-500s224-500 500-500 500 224 500 500-224 500-500 500z m0-906c-224 0-406 182-406 406s182 406 406 406 406-182 406-406-182-406-406-406z" horiz-adv-x="1000" />

<glyph glyph-name="cancel-circle" unicode="&#xea0d;" d="M500 850c-276 0-500-224-500-500s224-500 500-500 500 224 500 500-224 500-500 500z m0-906c-224 0-406 182-406 406s182 406 406 406 406-182 406-406-182-406-406-406z m156 656l-156-156-156 156-94-94 156-156-156-156 94-94 156 156 156-156 94 94-156 156 156 156z" horiz-adv-x="1000" />

<glyph glyph-name="cross" unicode="&#xea0f;" d="M991 47c0 0 0 0 0 0l-303 303 303 303c0 0 0 0 0 0 3 4 6 8 7 12 4 11 2 24-7 33l-143 143c-9 9-22 11-33 7-4-1-8-4-12-7 0 0 0 0 0 0l-303-303-303 303c0 0 0 0 0 0-4 3-7 6-11 7-12 4-25 2-34-7l-143-143c-9-9-11-22-7-33 2-4 4-8 7-12 0 0 0 0 0 0l304-303-304-303c0 0 0 0 0 0-3-4-5-7-7-11-4-12-2-25 7-34l143-143c9-9 22-11 34-7 4 1 7 4 11 7 0 0 0 0 0 0l303 304 303-304c0 0 0 0 0 0 4-3 8-6 12-7 11-4 24-2 33 7l143 143c9 9 11 22 7 34-1 4-4 7-7 11z" horiz-adv-x="1000" />

<glyph glyph-name="checkmark" unicode="&#xea10;" d="M844 725l-469-469-219 219-156-156 375-375 625 625z" horiz-adv-x="1000" />

<glyph glyph-name="checkmark2" unicode="&#xea11;" d="M388-46l-388 382 192 190 196-193 420 413 192-189-612-603z m-283 382l283-278 507 499-87 85-420-413-196 193-87-86z" horiz-adv-x="1000" />

<glyph glyph-name="enter" unicode="&#xea13;" d="M375 350h-312v125h312v125l188-187-188-188z m625 500v-812l-375-188v188h-375v250h63v-188h312v563l250 125h-562v-250h-63v312z" horiz-adv-x="1000" />

<glyph glyph-name="exit" unicode="&#xea14;" d="M750 225v125h-312v125h312v125l188-187z m-62 63v-250h-313v-188l-375 188v812h688v-312h-63v250h-500l250-125v-563h250v188z" horiz-adv-x="1000" />

<glyph glyph-name="arrow-up" unicode="&#xea32;" d="M500 819l-469-469h282v-500h375v500h281z" horiz-adv-x="1000" />

<glyph glyph-name="arrow-right" unicode="&#xea34;" d="M969 350l-469 469v-281h-500v-375h500v-282z" horiz-adv-x="1000" />

<glyph glyph-name="arrow-down" unicode="&#xea36;" d="M500-119l469 469h-281v500h-375v-500h-282z" horiz-adv-x="1000" />

<glyph glyph-name="arrow-left" unicode="&#xea38;" d="M31 350l469-469v282h500v375h-500v281z" horiz-adv-x="1000" />

<glyph glyph-name="arrow-right2" unicode="&#xea3c;" d="M607-7l312 313c25 24 25 64 0 88l-312 313c-25 24-64 24-89 0-24-25-24-64 0-89l206-205h-599c-34 0-62-28-62-63s28-62 62-62h599l-206-206c-12-12-18-28-18-44s6-32 18-45c25-24 64-24 89 0z" horiz-adv-x="1000" />

<glyph glyph-name="arrow-left2" unicode="&#xea40;" d="M393-7l-312 313c-25 24-25 64 0 88l312 313c25 24 64 24 89 0 24-25 24-64 0-89l-206-205h599c35 0 63-28 63-63s-28-62-63-62h-599l206-206c12-12 18-28 18-44s-6-32-18-45c-25-24-64-24-89 0z" horiz-adv-x="1000" />

<glyph glyph-name="checkbox-checked" unicode="&#xea52;" d="M875 850h-750c-69 0-125-56-125-125v-750c0-69 56-125 125-125h750c69 0 125 56 125 125v750c0 69-56 125-125 125z m-437-776l-232 232 88 88 144-143 299 299 88-88-387-388z" horiz-adv-x="1000" />

<glyph glyph-name="checkbox-unchecked" unicode="&#xea53;" d="M875 850h-750c-69 0-125-56-125-125v-750c0-69 56-125 125-125h750c69 0 125 56 125 125v750c0 69-56 125-125 125z m0-875h-750v750h750v-750z" horiz-adv-x="1000" />

<glyph glyph-name="filter" unicode="&#xea5b;" d="M500 850c-276 0-500-70-500-156v-94l375-375v-313c0-34 56-62 125-62 69 0 125 28 125 62v313l375 375v94c0 86-224 156-500 156z m-408-136c24 14 56 26 95 37 86 24 197 37 313 37 116 0 227-13 313-37 39-11 71-23 95-37 15-8 24-16 28-20-4-5-13-12-28-21-24-13-56-26-95-36-86-24-197-37-313-37s-227 13-313 37c-39 10-71 23-95 36-15 9-24 16-27 21 3 4 12 12 27 20z" horiz-adv-x="1000" />

<glyph glyph-name="angle-left" unicode="&#xf104;" d="M350 546q0-7-6-12l-219-220 219-219q6-6 6-13t-6-13l-28-28q-5-5-12-5t-13 5l-260 261q-6 5-6 12t6 13l260 260q5 6 13 6t12-6l28-28q6-5 6-13z" horiz-adv-x="357.1" />

<glyph glyph-name="angle-right" unicode="&#xf105;" d="M332 314q0-7-5-12l-261-261q-5-5-12-5t-13 5l-28 28q-6 6-6 13t6 13l219 219-219 220q-6 5-6 12t6 13l28 28q5 6 13 6t12-6l261-260q5-5 5-13z" horiz-adv-x="357.1" />

<glyph glyph-name="angle-up" unicode="&#xf106;" d="M600 189q0-7-6-12l-28-28q-5-6-12-6t-13 6l-220 219-219-219q-5-6-13-6t-12 6l-28 28q-6 5-6 12t6 13l260 260q5 6 12 6t13-6l260-260q6-5 6-13z" horiz-adv-x="642.9" />

<glyph glyph-name="file-pdf" unicode="&#xf1c1;" d="M819 638q16-16 27-42t11-50v-642q0-23-15-38t-38-16h-750q-23 0-38 16t-16 38v892q0 23 16 38t38 16h500q22 0 49-11t42-27z m-248 136v-210h210q-5 17-12 23l-175 175q-6 7-23 12z m215-853v572h-232q-23 0-38 16t-16 37v233h-429v-858h715z m-287 331q18-14 47-31 33 4 65 4 82 0 99-27 9-13 1-29 0-1-1-1l-1-2v0q-3-21-39-21-27 0-64 11t-73 29q-123-13-219-46-85-146-135-146-8 0-15 4l-14 7q0 0-3 2-6 6-4 20 5 23 32 51t73 54q8 5 13-3 1-1 1-2 29 47 60 110 38 76 58 146-13 46-17 89t4 71q6 22 23 22h12q13 0 20-8 10-12 5-38-1-3-2-4 0-2 0-5v-17q-1-68-8-107 31-91 82-133z m-321-229q29 13 76 88-29-22-49-47t-27-41z m222 513q-9-23-2-73 1 4 4 24 0 2 4 24 1 3 3 5-1 0-1 1-1 1-1 2 0 12-7 20 0-1 0-1v-2z m-70-368q76 30 159 45-1 0-7 5t-9 8q-43 37-71 98-15-48-46-110-17-31-26-46z m361 9q-13 13-78 13 42-16 69-16 8 0 10 1 0 0-1 2z" horiz-adv-x="857.1" />

<glyph glyph-name="file-excel" unicode="&#xf1c3;" d="M819 638q16-16 27-42t11-50v-642q0-23-15-38t-38-16h-750q-23 0-38 16t-16 38v892q0 23 16 38t38 16h500q22 0 49-11t42-27z m-248 136v-210h210q-5 17-12 23l-175 175q-6 7-23 12z m215-853v572h-232q-23 0-38 16t-16 37v233h-429v-858h715z m-547 131v-59h157v59h-42l58 90q3 4 5 9t5 8 2 2h1q0-2 3-6 1-2 2-4t3-4 4-5l60-90h-43v-59h163v59h-38l-107 152 108 158h38v59h-156v-59h41l-57-89q-2-4-6-9t-5-8l-1-1h-1q0 2-3 5-3 6-9 13l-59 89h42v59h-162v-59h38l106-152-109-158h-38z" horiz-adv-x="857.1" />
</font>
</defs>
</svg>
