<svg aria-hidden="true" style="position: absolute; width: 0; height: 0; overflow: hidden;" version="1.1" xmlns="http://www.w3.org/2000/svg" xmlns:xlink="http://www.w3.org/1999/xlink">
<defs>
<symbol id="icon-cross" viewBox="0 0 32 32">
<title>cross</title>
<path d="M31.708 25.708c-0-0-0-0-0-0l-9.708-9.708 9.708-9.708c0-0 0-0 0-0 0.105-0.105 0.18-0.227 0.229-0.357 0.133-0.356 0.057-0.771-0.229-1.057l-4.586-4.586c-0.286-0.286-0.702-0.361-1.057-0.229-0.13 0.048-0.252 0.124-0.357 0.228 0 0-0 0-0 0l-9.708 9.708-9.708-9.708c-0-0-0-0-0-0-0.105-0.104-0.227-0.18-0.357-0.228-0.356-0.133-0.771-0.057-1.057 0.229l-4.586 4.586c-0.286 0.286-0.361 0.702-0.229 1.057 0.049 0.13 0.124 0.252 0.229 0.357 0 0 0 0 0 0l9.708 9.708-9.708 9.708c-0 0-0 0-0 0-0.104 0.105-0.18 0.227-0.229 0.357-0.133 0.355-0.057 0.771 0.229 1.057l4.586 4.586c0.286 0.286 0.702 0.361 1.057 0.229 0.13-0.049 0.252-0.124 0.357-0.229 0-0 0-0 0-0l9.708-9.708 9.708 9.708c0 0 0 0 0 0 0.105 0.105 0.227 0.18 0.357 0.229 0.356 0.133 0.771 0.057 1.057-0.229l4.586-4.586c0.286-0.286 0.362-0.702 0.229-1.057-0.049-0.13-0.124-0.252-0.229-0.357z"></path>
</symbol>
<symbol id="icon-checkmark" viewBox="0 0 32 32">
<title>checkmark</title>
<path d="M27 4l-15 15-7-7-5 5 12 12 20-20z"></path>
</symbol>
<symbol id="icon-check" viewBox="0 0 28 28">
<title>check</title>
<path d="M26.109 8.844c0 0.391-0.156 0.781-0.438 1.062l-13.438 13.438c-0.281 0.281-0.672 0.438-1.062 0.438s-0.781-0.156-1.062-0.438l-7.781-7.781c-0.281-0.281-0.438-0.672-0.438-1.062s0.156-0.781 0.438-1.062l2.125-2.125c0.281-0.281 0.672-0.438 1.062-0.438s0.781 0.156 1.062 0.438l4.594 4.609 10.25-10.266c0.281-0.281 0.672-0.438 1.062-0.438s0.781 0.156 1.062 0.438l2.125 2.125c0.281 0.281 0.438 0.672 0.438 1.062z"></path>
</symbol>
<symbol id="icon-change-up" viewBox="0 0 40 33.283">
  <path d="M29.762,43.274l1.314,1.314a1.414,1.414,0,0,1,0,2.006l-11.5,11.5a1.414,1.414,0,0,1-2.006,0l-11.5-11.5a1.414,1.414,0,0,1,0-2.006l1.314-1.314a1.422,1.422,0,0,1,2.03.024L16.2,50.428V33.42A1.417,1.417,0,0,1,17.625,32h1.894a1.417,1.417,0,0,1,1.42,1.42V50.428L27.733,43.3a1.412,1.412,0,0,1,2.03-.024Z" transform="translate(38.493 65.283) rotate(180)"/><circle cx="2" cy="2" r="2"/><circle cx="2" cy="2" r="2" transform="translate(6)"/><circle cx="2" cy="2" r="2" transform="translate(12)"/><circle cx="2" cy="2" r="2" transform="translate(18)"/><circle cx="2" cy="2" r="2" transform="translate(24)"/><circle cx="2" cy="2" r="2" transform="translate(30)"/><circle cx="2" cy="2" r="2" transform="translate(36)"/>
</symbol>
<symbol id="icon-change-down" viewBox="0 0 40 33.283">
  <path d="M29.762,43.274l1.314,1.314a1.414,1.414,0,0,1,0,2.006l-11.5,11.5a1.414,1.414,0,0,1-2.006,0l-11.5-11.5a1.414,1.414,0,0,1,0-2.006l1.314-1.314a1.422,1.422,0,0,1,2.03.024L16.2,50.428V33.42A1.417,1.417,0,0,1,17.625,32h1.894a1.417,1.417,0,0,1,1.42,1.42V50.428L27.733,43.3a1.412,1.412,0,0,1,2.03-.024Z" transform="translate(1.35 -25.233)"/><circle cx="2" cy="2" r="2"/><circle cx="2" cy="2" r="2" transform="translate(6)"/><circle cx="2" cy="2" r="2" transform="translate(12)"/><circle cx="2" cy="2" r="2" transform="translate(18)"/><circle cx="2" cy="2" r="2" transform="translate(24)"/><circle cx="2" cy="2" r="2" transform="translate(30)"/><circle cx="2" cy="2" r="2" transform="translate(36)"/>
</symbol>
<symbol id="icon-change-none" viewBox="0 0 40 4">
  <circle cx="2" cy="2" r="2"/><circle cx="2" cy="2" r="2" transform="translate(6)"/><circle cx="2" cy="2" r="2" transform="translate(12)"/><circle cx="2" cy="2" r="2" transform="translate(18)"/><circle cx="2" cy="2" r="2" transform="translate(24)"/><circle cx="2" cy="2" r="2" transform="translate(30)"/><circle cx="2" cy="2" r="2" transform="translate(36)"/>
</symbol>
<symbol id="icon-ok-circled" viewBox="0 0 44.82 44.82"><g transform="translate(0 0)"><path d="M52.82,30.41A22.41,22.41,0,1,1,30.41,8,22.41,22.41,0,0,1,52.82,30.41Zm-25,11.866L44.444,25.649a1.446,1.446,0,0,0,0-2.045L42.4,21.56a1.446,1.446,0,0,0-2.045,0L26.8,35.119l-6.331-6.331a1.446,1.446,0,0,0-2.045,0l-2.045,2.045a1.446,1.446,0,0,0,0,2.045l9.4,9.4a1.446,1.446,0,0,0,2.045,0Z" transform="translate(-8 -8)"/></g></symbol>
<symbol id="icon-cancel-circled2" viewBox="0 0 44.82 44.82"><path d="M30.41,8A22.41,22.41,0,1,0,52.82,30.41,22.406,22.406,0,0,0,30.41,8Zm0,40.483A18.073,18.073,0,1,1,48.483,30.41,18.068,18.068,0,0,1,30.41,48.483Zm9.2-23.693L33.988,30.41l5.621,5.621a1.085,1.085,0,0,1,0,1.536l-2.042,2.042a1.085,1.085,0,0,1-1.536,0L30.41,33.988l-5.621,5.621a1.085,1.085,0,0,1-1.536,0l-2.042-2.042a1.085,1.085,0,0,1,0-1.536l5.621-5.621-5.621-5.621a1.085,1.085,0,0,1,0-1.536l2.042-2.042a1.085,1.085,0,0,1,1.536,0l5.621,5.621,5.621-5.621a1.085,1.085,0,0,1,1.536,0l2.042,2.042a1.085,1.085,0,0,1,0,1.536Z" transform="translate(-8 -8)"/></symbol>
</defs>
</svg>
