<svg aria-hidden="true" style="position: absolute; width: 0; height: 0; overflow: hidden;" version="1.1" xmlns="http://www.w3.org/2000/svg" xmlns:xlink="http://www.w3.org/1999/xlink">
<defs>
<symbol id="icon-undo" viewBox="0 0 32 32">
<title>undo</title>
<path d="M28 8v20h-24v-4h20v-12h-6.071l3.657 3.66-2.828 2.83-8.485-8.484 8.485-8.485 2.828 2.826-3.657 3.653h10.071z"></path>
</symbol>
<symbol id="icon-move" viewBox="0 0 32 32">
<title>move</title>
<path d="M17.984 5.921v8.063h8v-4l6.016 6.016-6.016 6.015v-4.093h-8v8.063h4.031l-6.015 6.015-6.016-6.015h4v-8.063h-8v4.062l-5.984-5.984 5.984-5.984v3.968h8v-8.063h-3.906l5.922-5.921 5.922 5.921h-3.938z"></path>
</symbol>
<symbol id="icon-home3" viewBox="0 0 32 32">
<title>home3</title>
<path d="M32 19l-6-6v-9h-4v5l-6-6-16 16v1h4v10h10v-6h4v6h10v-10h4z"></path>
</symbol>
<symbol id="icon-pencil" viewBox="0 0 32 32">
<title>pencil</title>
<path d="M27 0c2.761 0 5 2.239 5 5 0 1.126-0.372 2.164-1 3l-2 2-7-7 2-2c0.836-0.628 1.874-1 3-1zM2 23l-2 9 9-2 18.5-18.5-7-7-18.5 18.5zM22.362 11.362l-14 14-1.724-1.724 14-14 1.724 1.724z"></path>
</symbol>
<symbol id="icon-file-text" viewBox="0 0 32 32">
<title>file-text</title>
<path d="M27 0h-24c-1.65 0-3 1.35-3 3v26c0 1.65 1.35 3 3 3h24c1.65 0 3-1.35 3-3v-26c0-1.65-1.35-3-3-3zM26 28h-22v-24h22v24zM8 14h14v2h-14zM8 18h14v2h-14zM8 22h14v2h-14zM8 10h14v2h-14z"></path>
</symbol>
<symbol id="icon-copy" viewBox="0 0 32 32">
<title>copy</title>
<path d="M20 8v-8h-14l-6 6v18h12v8h20v-24h-12zM6 2.828v3.172h-3.172l3.172-3.172zM2 22v-14h6v-6h10v6l-6 6v8h-10zM18 10.828v3.172h-3.172l3.172-3.172zM30 30h-16v-14h6v-6h10v20z"></path>
</symbol>
<symbol id="icon-bell" viewBox="0 0 32 32">
<title>bell</title>
<path d="M32.047 25c0-9-8-7-8-14 0-0.58-0.056-1.076-0.158-1.498-0.526-3.532-2.88-6.366-5.93-7.23 0.027-0.123 0.041-0.251 0.041-0.382 0-1.040-0.9-1.891-2-1.891s-2 0.851-2 1.891c0 0.131 0.014 0.258 0.041 0.382-3.421 0.969-5.966 4.416-6.039 8.545-0.001 0.060-0.002 0.121-0.002 0.183 0 7-8 5-8 14 0 2.382 5.331 4.375 12.468 4.878 0.673 1.263 2.002 2.122 3.532 2.122s2.86-0.86 3.532-2.122c7.137-0.503 12.468-2.495 12.468-4.878 0-0.007-0.001-0.014-0.001-0.021l0.048 0.021zM25.82 26.691c-1.695 0.452-3.692 0.777-5.837 0.958-0.178-2.044-1.893-3.648-3.984-3.648s-3.805 1.604-3.984 3.648c-2.144-0.18-4.142-0.506-5.837-0.958-2.332-0.622-3.447-1.318-3.855-1.691 0.408-0.372 1.523-1.068 3.855-1.691 2.712-0.724 6.199-1.122 9.82-1.122s7.109 0.398 9.82 1.122c2.332 0.622 3.447 1.318 3.855 1.691-0.408 0.372-1.523 1.068-3.855 1.691z"></path>
</symbol>
<symbol id="icon-calendar" viewBox="0 0 32 32">
<title>calendar</title>
<path d="M10 12h4v4h-4zM16 12h4v4h-4zM22 12h4v4h-4zM4 24h4v4h-4zM10 24h4v4h-4zM16 24h4v4h-4zM10 18h4v4h-4zM16 18h4v4h-4zM22 18h4v4h-4zM4 18h4v4h-4zM26 0v2h-4v-2h-14v2h-4v-2h-4v32h30v-32h-4zM28 30h-26v-22h26v22z"></path>
</symbol>
<symbol id="icon-printer" viewBox="0 0 32 32">
<title>printer</title>
<path d="M8 2h16v4h-16v-4z"></path>
<path d="M30 8h-28c-1.1 0-2 0.9-2 2v10c0 1.1 0.9 2 2 2h6v8h16v-8h6c1.1 0 2-0.9 2-2v-10c0-1.1-0.9-2-2-2zM4 14c-1.105 0-2-0.895-2-2s0.895-2 2-2 2 0.895 2 2-0.895 2-2 2zM22 28h-12v-10h12v10z"></path>
</symbol>
<symbol id="icon-database" viewBox="0 0 32 32">
<title>database</title>
<path d="M16 0c-8.837 0-16 2.239-16 5v4c0 2.761 7.163 5 16 5s16-2.239 16-5v-4c0-2.761-7.163-5-16-5z"></path>
<path d="M16 17c-8.837 0-16-2.239-16-5v6c0 2.761 7.163 5 16 5s16-2.239 16-5v-6c0 2.761-7.163 5-16 5z"></path>
<path d="M16 26c-8.837 0-16-2.239-16-5v6c0 2.761 7.163 5 16 5s16-2.239 16-5v-6c0 2.761-7.163 5-16 5z"></path>
</symbol>
<symbol id="icon-user" viewBox="0 0 32 32">
<title>user</title>
<path d="M18 22.082v-1.649c2.203-1.241 4-4.337 4-7.432 0-4.971 0-9-6-9s-6 4.029-6 9c0 3.096 1.797 6.191 4 7.432v1.649c-6.784 0.555-12 3.888-12 7.918h28c0-4.030-5.216-7.364-12-7.918z"></path>
</symbol>
<symbol id="icon-users2" viewBox="0 0 36 32">
<title>users2</title>
<path d="M24 24.082v-1.649c2.203-1.241 4-4.337 4-7.432 0-4.971 0-9-6-9s-6 4.029-6 9c0 3.096 1.797 6.191 4 7.432v1.649c-6.784 0.555-12 3.888-12 7.918h28c0-4.030-5.216-7.364-12-7.918z"></path>
<path d="M10.225 24.854c1.728-1.13 3.877-1.989 6.243-2.513-0.47-0.556-0.897-1.176-1.265-1.844-0.95-1.726-1.453-3.627-1.453-5.497 0-2.689 0-5.228 0.956-7.305 0.928-2.016 2.598-3.265 4.976-3.734-0.529-2.39-1.936-3.961-5.682-3.961-6 0-6 4.029-6 9 0 3.096 1.797 6.191 4 7.432v1.649c-6.784 0.555-12 3.888-12 7.918h8.719c0.454-0.403 0.956-0.787 1.506-1.146z"></path>
</symbol>
<symbol id="icon-enlarge2" viewBox="0 0 32 32">
<title>enlarge2</title>
<path d="M32 0v13l-5-5-6 6-3-3 6-6-5-5zM14 21l-6 6 5 5h-13v-13l5 5 6-6z"></path>
</symbol>
<symbol id="icon-shrink2" viewBox="0 0 32 32">
<title>shrink2</title>
<path d="M14 18v13l-5-5-6 6-3-3 6-6-5-5zM32 3l-6 6 5 5h-13v-13l5 5 6-6z"></path>
</symbol>
<symbol id="icon-lock" viewBox="0 0 32 32">
<title>lock</title>
<path d="M18.5 14h-0.5v-6c0-3.308-2.692-6-6-6h-4c-3.308 0-6 2.692-6 6v6h-0.5c-0.825 0-1.5 0.675-1.5 1.5v15c0 0.825 0.675 1.5 1.5 1.5h17c0.825 0 1.5-0.675 1.5-1.5v-15c0-0.825-0.675-1.5-1.5-1.5zM6 8c0-1.103 0.897-2 2-2h4c1.103 0 2 0.897 2 2v6h-8v-6z"></path>
</symbol>
<symbol id="icon-unlocked" viewBox="0 0 32 32">
<title>unlocked</title>
<path d="M24 2c3.308 0 6 2.692 6 6v6h-4v-6c0-1.103-0.897-2-2-2h-4c-1.103 0-2 0.897-2 2v6h0.5c0.825 0 1.5 0.675 1.5 1.5v15c0 0.825-0.675 1.5-1.5 1.5h-17c-0.825 0-1.5-0.675-1.5-1.5v-15c0-0.825 0.675-1.5 1.5-1.5h12.5v-6c0-3.308 2.692-6 6-6h4z"></path>
</symbol>
<symbol id="icon-equalizer" viewBox="0 0 32 32">
<title>equalizer</title>
<path d="M14 4v-0.5c0-0.825-0.675-1.5-1.5-1.5h-5c-0.825 0-1.5 0.675-1.5 1.5v0.5h-6v4h6v0.5c0 0.825 0.675 1.5 1.5 1.5h5c0.825 0 1.5-0.675 1.5-1.5v-0.5h18v-4h-18zM8 8v-4h4v4h-4zM26 13.5c0-0.825-0.675-1.5-1.5-1.5h-5c-0.825 0-1.5 0.675-1.5 1.5v0.5h-18v4h18v0.5c0 0.825 0.675 1.5 1.5 1.5h5c0.825 0 1.5-0.675 1.5-1.5v-0.5h6v-4h-6v-0.5zM20 18v-4h4v4h-4zM14 23.5c0-0.825-0.675-1.5-1.5-1.5h-5c-0.825 0-1.5 0.675-1.5 1.5v0.5h-6v4h6v0.5c0 0.825 0.675 1.5 1.5 1.5h5c0.825 0 1.5-0.675 1.5-1.5v-0.5h18v-4h-18v-0.5zM8 28v-4h4v4h-4z"></path>
</symbol>
<symbol id="icon-cog" viewBox="0 0 32 32">
<title>cog</title>
<path d="M29.181 19.070c-1.679-2.908-0.669-6.634 2.255-8.328l-3.145-5.447c-0.898 0.527-1.943 0.829-3.058 0.829-3.361 0-6.085-2.742-6.085-6.125h-6.289c0.008 1.044-0.252 2.103-0.811 3.070-1.679 2.908-5.411 3.897-8.339 2.211l-3.144 5.447c0.905 0.515 1.689 1.268 2.246 2.234 1.676 2.903 0.672 6.623-2.241 8.319l3.145 5.447c0.895-0.522 1.935-0.82 3.044-0.82 3.35 0 6.067 2.725 6.084 6.092h6.289c-0.003-1.034 0.259-2.080 0.811-3.038 1.676-2.903 5.399-3.894 8.325-2.219l3.145-5.447c-0.899-0.515-1.678-1.266-2.232-2.226zM16 22.479c-3.578 0-6.479-2.901-6.479-6.479s2.901-6.479 6.479-6.479c3.578 0 6.479 2.901 6.479 6.479s-2.901 6.479-6.479 6.479z"></path>
</symbol>
<symbol id="icon-list-numbered" viewBox="0 0 32 32">
<title>list-numbered</title>
<path d="M12 26h20v4h-20zM12 14h20v4h-20zM12 2h20v4h-20zM6 0v8h-2v-6h-2v-2zM4 16.438v1.563h4v2h-6v-4.563l4-1.875v-1.563h-4v-2h6v4.563zM8 22v10h-6v-2h4v-2h-4v-2h4v-2h-4v-2z"></path>
</symbol>
<symbol id="icon-list" viewBox="0 0 32 32">
<title>list</title>
<path d="M0 0h8v8h-8zM12 2h20v4h-20zM0 12h8v8h-8zM12 14h20v4h-20zM0 24h8v8h-8zM12 26h20v4h-20z"></path>
</symbol>
<symbol id="icon-list2" viewBox="0 0 32 32">
<title>list2</title>
<path d="M12 2h20v4h-20v-4zM12 14h20v4h-20v-4zM12 26h20v4h-20v-4zM0 4c0-2.209 1.791-4 4-4s4 1.791 4 4c0 2.209-1.791 4-4 4s-4-1.791-4-4zM0 16c0-2.209 1.791-4 4-4s4 1.791 4 4c0 2.209-1.791 4-4 4s-4-1.791-4-4zM0 28c0-2.209 1.791-4 4-4s4 1.791 4 4c0 2.209-1.791 4-4 4s-4-1.791-4-4z"></path>
</symbol>
<symbol id="icon-menu" viewBox="0 0 32 32">
<title>menu</title>
<path d="M2 6h28v6h-28zM2 14h28v6h-28zM2 22h28v6h-28z"></path>
</symbol>
<symbol id="icon-download2" viewBox="0 0 32 32">
<title>download2</title>
<path d="M28 16h-5l-7 7-7-7h-5l-4 8v2h32v-2l-4-8zM0 28h32v2h-32v-2zM18 10v-8h-4v8h-7l9 9 9-9h-7z"></path>
</symbol>
<symbol id="icon-upload2" viewBox="0 0 32 32">
<title>upload2</title>
<path d="M0 28h32v2h-32zM32 24v2h-32v-2l4-8h8v4h8v-4h8zM7 10l9-9 9 9h-7v8h-4v-8z"></path>
</symbol>
<symbol id="icon-flag" viewBox="0 0 32 32">
<title>flag</title>
<path d="M0 0h4v32h-4v-32z"></path>
<path d="M26 20.094c2.582 0 4.83-0.625 6-1.547v-16c-1.17 0.922-3.418 1.547-6 1.547s-4.83-0.625-6-1.547v16c1.17 0.922 3.418 1.547 6 1.547z"></path>
<path d="M19 1.016c-1.466-0.623-3.61-1.016-6-1.016-3.012 0-5.635 0.625-7 1.547v16c1.365-0.922 3.988-1.547 7-1.547 2.39 0 4.534 0.393 6 1.016v-16z"></path>
</symbol>
<symbol id="icon-eye" viewBox="0 0 32 32">
<title>eye</title>
<path d="M16 6c-6.979 0-13.028 4.064-16 10 2.972 5.936 9.021 10 16 10s13.027-4.064 16-10c-2.972-5.936-9.021-10-16-10zM23.889 11.303c1.88 1.199 3.473 2.805 4.67 4.697-1.197 1.891-2.79 3.498-4.67 4.697-2.362 1.507-5.090 2.303-7.889 2.303s-5.527-0.796-7.889-2.303c-1.88-1.199-3.473-2.805-4.67-4.697 1.197-1.891 2.79-3.498 4.67-4.697 0.122-0.078 0.246-0.154 0.371-0.228-0.311 0.854-0.482 1.776-0.482 2.737 0 4.418 3.582 8 8 8s8-3.582 8-8c0-0.962-0.17-1.883-0.482-2.737 0.124 0.074 0.248 0.15 0.371 0.228v0zM16 13c0 1.657-1.343 3-3 3s-3-1.343-3-3 1.343-3 3-3 3 1.343 3 3z"></path>
</symbol>
<symbol id="icon-eye-blocked" viewBox="0 0 32 32">
<title>eye-blocked</title>
<path d="M29.561 0.439c-0.586-0.586-1.535-0.586-2.121 0l-6.318 6.318c-1.623-0.492-3.342-0.757-5.122-0.757-6.979 0-13.028 4.064-16 10 1.285 2.566 3.145 4.782 5.407 6.472l-4.968 4.968c-0.586 0.586-0.586 1.535 0 2.121 0.293 0.293 0.677 0.439 1.061 0.439s0.768-0.146 1.061-0.439l27-27c0.586-0.586 0.586-1.536 0-2.121zM13 10c1.32 0 2.44 0.853 2.841 2.037l-3.804 3.804c-1.184-0.401-2.037-1.521-2.037-2.841 0-1.657 1.343-3 3-3zM3.441 16c1.197-1.891 2.79-3.498 4.67-4.697 0.122-0.078 0.246-0.154 0.371-0.228-0.311 0.854-0.482 1.776-0.482 2.737 0 1.715 0.54 3.304 1.459 4.607l-1.904 1.904c-1.639-1.151-3.038-2.621-4.114-4.323z"></path>
<path d="M24 13.813c0-0.849-0.133-1.667-0.378-2.434l-10.056 10.056c0.768 0.245 1.586 0.378 2.435 0.378 4.418 0 8-3.582 8-8z"></path>
<path d="M25.938 9.062l-2.168 2.168c0.040 0.025 0.079 0.049 0.118 0.074 1.88 1.199 3.473 2.805 4.67 4.697-1.197 1.891-2.79 3.498-4.67 4.697-2.362 1.507-5.090 2.303-7.889 2.303-1.208 0-2.403-0.149-3.561-0.439l-2.403 2.403c1.866 0.671 3.873 1.036 5.964 1.036 6.978 0 13.027-4.064 16-10-1.407-2.81-3.504-5.2-6.062-6.938z"></path>
</symbol>
<symbol id="icon-warning" viewBox="0 0 32 32">
<title>warning</title>
<path d="M16 2.899l13.409 26.726h-26.819l13.409-26.726zM16 0c-0.69 0-1.379 0.465-1.903 1.395l-13.659 27.222c-1.046 1.86-0.156 3.383 1.978 3.383h27.166c2.134 0 3.025-1.522 1.978-3.383h0l-13.659-27.222c-0.523-0.93-1.213-1.395-1.903-1.395v0z"></path>
<path d="M18 26c0 1.105-0.895 2-2 2s-2-0.895-2-2c0-1.105 0.895-2 2-2s2 0.895 2 2z"></path>
<path d="M16 22c-1.105 0-2-0.895-2-2v-6c0-1.105 0.895-2 2-2s2 0.895 2 2v6c0 1.105-0.895 2-2 2z"></path>
</symbol>
<symbol id="icon-notification" viewBox="0 0 32 32">
<title>notification</title>
<path d="M16 3c-3.472 0-6.737 1.352-9.192 3.808s-3.808 5.72-3.808 9.192c0 3.472 1.352 6.737 3.808 9.192s5.72 3.808 9.192 3.808c3.472 0 6.737-1.352 9.192-3.808s3.808-5.72 3.808-9.192c0-3.472-1.352-6.737-3.808-9.192s-5.72-3.808-9.192-3.808zM16 0v0c8.837 0 16 7.163 16 16s-7.163 16-16 16c-8.837 0-16-7.163-16-16s7.163-16 16-16zM14 22h4v4h-4zM14 6h4v12h-4z"></path>
</symbol>
<symbol id="icon-question" viewBox="0 0 32 32">
<title>question</title>
<path d="M14 22h4v4h-4zM22 8c1.105 0 2 0.895 2 2v6l-6 4h-4v-2l6-4v-2h-10v-4h12zM16 3c-3.472 0-6.737 1.352-9.192 3.808s-3.808 5.72-3.808 9.192c0 3.472 1.352 6.737 3.808 9.192s5.72 3.808 9.192 3.808c3.472 0 6.737-1.352 9.192-3.808s3.808-5.72 3.808-9.192c0-3.472-1.352-6.737-3.808-9.192s-5.72-3.808-9.192-3.808zM16 0v0c8.837 0 16 7.163 16 16s-7.163 16-16 16c-8.837 0-16-7.163-16-16s7.163-16 16-16z"></path>
</symbol>
<symbol id="icon-plus" viewBox="0 0 32 32">
<title>plus</title>
<path d="M31 12h-11v-11c0-0.552-0.448-1-1-1h-6c-0.552 0-1 0.448-1 1v11h-11c-0.552 0-1 0.448-1 1v6c0 0.552 0.448 1 1 1h11v11c0 0.552 0.448 1 1 1h6c0.552 0 1-0.448 1-1v-11h11c0.552 0 1-0.448 1-1v-6c0-0.552-0.448-1-1-1z"></path>
</symbol>
<symbol id="icon-minus" viewBox="0 0 32 32">
<title>minus</title>
<path d="M0 13v6c0 0.552 0.448 1 1 1h30c0.552 0 1-0.448 1-1v-6c0-0.552-0.448-1-1-1h-30c-0.552 0-1 0.448-1 1z"></path>
</symbol>
<symbol id="icon-info" viewBox="0 0 32 32">
<title>info</title>
<path d="M14 9.5c0-0.825 0.675-1.5 1.5-1.5h1c0.825 0 1.5 0.675 1.5 1.5v1c0 0.825-0.675 1.5-1.5 1.5h-1c-0.825 0-1.5-0.675-1.5-1.5v-1z"></path>
<path d="M20 24h-8v-2h2v-6h-2v-2h6v8h2z"></path>
<path d="M16 0c-8.837 0-16 7.163-16 16s7.163 16 16 16 16-7.163 16-16-7.163-16-16-16zM16 29c-7.18 0-13-5.82-13-13s5.82-13 13-13 13 5.82 13 13-5.82 13-13 13z"></path>
</symbol>
<symbol id="icon-cancel-circle" viewBox="0 0 32 32">
<title>cancel-circle</title>
<path d="M16 0c-8.837 0-16 7.163-16 16s7.163 16 16 16 16-7.163 16-16-7.163-16-16-16zM16 29c-7.18 0-13-5.82-13-13s5.82-13 13-13 13 5.82 13 13-5.82 13-13 13z"></path>
<path d="M21 8l-5 5-5-5-3 3 5 5-5 5 3 3 5-5 5 5 3-3-5-5 5-5z"></path>
</symbol>
<symbol id="icon-cross" viewBox="0 0 32 32">
<title>cross</title>
<path d="M31.708 25.708c-0-0-0-0-0-0l-9.708-9.708 9.708-9.708c0-0 0-0 0-0 0.105-0.105 0.18-0.227 0.229-0.357 0.133-0.356 0.057-0.771-0.229-1.057l-4.586-4.586c-0.286-0.286-0.702-0.361-1.057-0.229-0.13 0.048-0.252 0.124-0.357 0.228 0 0-0 0-0 0l-9.708 9.708-9.708-9.708c-0-0-0-0-0-0-0.105-0.104-0.227-0.18-0.357-0.228-0.356-0.133-0.771-0.057-1.057 0.229l-4.586 4.586c-0.286 0.286-0.361 0.702-0.229 1.057 0.049 0.13 0.124 0.252 0.229 0.357 0 0 0 0 0 0l9.708 9.708-9.708 9.708c-0 0-0 0-0 0-0.104 0.105-0.18 0.227-0.229 0.357-0.133 0.355-0.057 0.771 0.229 1.057l4.586 4.586c0.286 0.286 0.702 0.361 1.057 0.229 0.13-0.049 0.252-0.124 0.357-0.229 0-0 0-0 0-0l9.708-9.708 9.708 9.708c0 0 0 0 0 0 0.105 0.105 0.227 0.18 0.357 0.229 0.356 0.133 0.771 0.057 1.057-0.229l4.586-4.586c0.286-0.286 0.362-0.702 0.229-1.057-0.049-0.13-0.124-0.252-0.229-0.357z"></path>
</symbol>
<symbol id="icon-checkmark" viewBox="0 0 32 32">
<title>checkmark</title>
<path d="M27 4l-15 15-7-7-5 5 12 12 20-20z"></path>
</symbol>
<symbol id="icon-checkmark2" viewBox="0 0 32 32">
<title>checkmark2</title>
<path d="M12.42 28.678l-12.433-12.238 6.168-6.071 6.265 6.167 13.426-13.214 6.168 6.071-19.594 19.285zM3.372 16.441l9.048 8.905 16.208-15.953-2.782-2.739-13.426 13.214-6.265-6.167-2.782 2.739z"></path>
</symbol>
<symbol id="icon-enter" viewBox="0 0 32 32">
<title>enter</title>
<path d="M12 16h-10v-4h10v-4l6 6-6 6zM32 0v26l-12 6v-6h-12v-8h2v6h10v-18l8-4h-18v8h-2v-10z"></path>
</symbol>
<symbol id="icon-exit" viewBox="0 0 32 32">
<title>exit</title>
<path d="M24 20v-4h-10v-4h10v-4l6 6zM22 18v8h-10v6l-12-6v-26h22v10h-2v-8h-16l8 4v18h8v-6z"></path>
</symbol>
<symbol id="icon-arrow-up" viewBox="0 0 32 32">
<title>arrow-up</title>
<path d="M16 1l-15 15h9v16h12v-16h9z"></path>
</symbol>
<symbol id="icon-arrow-right" viewBox="0 0 32 32">
<title>arrow-right</title>
<path d="M31 16l-15-15v9h-16v12h16v9z"></path>
</symbol>
<symbol id="icon-arrow-down" viewBox="0 0 32 32">
<title>arrow-down</title>
<path d="M16 31l15-15h-9v-16h-12v16h-9z"></path>
</symbol>
<symbol id="icon-arrow-left" viewBox="0 0 32 32">
<title>arrow-left</title>
<path d="M1 16l15 15v-9h16v-12h-16v-9z"></path>
</symbol>
<symbol id="icon-arrow-right2" viewBox="0 0 32 32">
<title>arrow-right2</title>
<path d="M19.414 27.414l10-10c0.781-0.781 0.781-2.047 0-2.828l-10-10c-0.781-0.781-2.047-0.781-2.828 0s-0.781 2.047 0 2.828l6.586 6.586h-19.172c-1.105 0-2 0.895-2 2s0.895 2 2 2h19.172l-6.586 6.586c-0.39 0.39-0.586 0.902-0.586 1.414s0.195 1.024 0.586 1.414c0.781 0.781 2.047 0.781 2.828 0z"></path>
</symbol>
<symbol id="icon-arrow-left2" viewBox="0 0 32 32">
<title>arrow-left2</title>
<path d="M12.586 27.414l-10-10c-0.781-0.781-0.781-2.047 0-2.828l10-10c0.781-0.781 2.047-0.781 2.828 0s0.781 2.047 0 2.828l-6.586 6.586h19.172c1.105 0 2 0.895 2 2s-0.895 2-2 2h-19.172l6.586 6.586c0.39 0.39 0.586 0.902 0.586 1.414s-0.195 1.024-0.586 1.414c-0.781 0.781-2.047 0.781-2.828 0z"></path>
</symbol>
<symbol id="icon-checkbox-checked" viewBox="0 0 32 32">
<title>checkbox-checked</title>
<path d="M28 0h-24c-2.2 0-4 1.8-4 4v24c0 2.2 1.8 4 4 4h24c2.2 0 4-1.8 4-4v-24c0-2.2-1.8-4-4-4zM14 24.828l-7.414-7.414 2.828-2.828 4.586 4.586 9.586-9.586 2.828 2.828-12.414 12.414z"></path>
</symbol>
<symbol id="icon-checkbox-unchecked" viewBox="0 0 32 32">
<title>checkbox-unchecked</title>
<path d="M28 0h-24c-2.2 0-4 1.8-4 4v24c0 2.2 1.8 4 4 4h24c2.2 0 4-1.8 4-4v-24c0-2.2-1.8-4-4-4zM28 28h-24v-24h24v24z"></path>
</symbol>
<symbol id="icon-filter" viewBox="0 0 32 32">
<title>filter</title>
<path d="M16 0c-8.837 0-16 2.239-16 5v3l12 12v10c0 1.105 1.791 2 4 2s4-0.895 4-2v-10l12-12v-3c0-2.761-7.163-5-16-5zM2.95 4.338c0.748-0.427 1.799-0.832 3.040-1.171 2.748-0.752 6.303-1.167 10.011-1.167s7.262 0.414 10.011 1.167c1.241 0.34 2.292 0.745 3.040 1.171 0.494 0.281 0.76 0.519 0.884 0.662-0.124 0.142-0.391 0.38-0.884 0.662-0.748 0.427-1.8 0.832-3.040 1.171-2.748 0.752-6.303 1.167-10.011 1.167s-7.262-0.414-10.011-1.167c-1.24-0.34-2.292-0.745-3.040-1.171-0.494-0.282-0.76-0.519-0.884-0.662 0.124-0.142 0.391-0.38 0.884-0.662z"></path>
</symbol>
<symbol id="icon-settings_backup_restore" viewBox="0 0 24 24">
<title>settings_backup_restore</title>
<path d="M12 3c4.969 0 9 4.031 9 9s-4.031 9-9 9c-2.063 0-3.984-0.703-5.484-1.875l1.406-1.406c1.172 0.797 2.578 1.266 4.078 1.266 3.891 0 6.984-3.094 6.984-6.984s-3.094-6.984-6.984-6.984-6.984 3.094-6.984 6.984h3l-4.031 3.984-3.984-3.984h3c0-4.969 4.031-9 9-9zM14.016 12c0 1.078-0.938 2.016-2.016 2.016s-2.016-0.938-2.016-2.016 0.938-2.016 2.016-2.016 2.016 0.938 2.016 2.016z"></path>
</symbol>
<symbol id="icon-child1" viewBox="0 0 23 32">
<title>child1</title>
<path d="M8.067 5.8c0-1.167 0.408-2.158 1.225-2.975s1.808-1.225 2.975-1.225c1.167 0 2.158 0.408 2.975 1.225s1.225 1.808 1.225 2.975c0 1.167-0.408 2.158-1.225 2.975s-1.808 1.225-2.975 1.225c-1.167 0-2.158-0.408-2.975-1.225s-1.225-1.808-1.225-2.975zM22.942 5.858c0.35 0.389 0.525 0.836 0.525 1.342s-0.175 0.953-0.525 1.342l-5.542 5.483v15.575c0 0.506-0.185 0.943-0.554 1.313s-0.807 0.554-1.313 0.554h-0.933c-0.506 0-0.943-0.185-1.313-0.554s-0.554-0.807-0.554-1.313v-6.533h-0.933v6.533c0 0.506-0.185 0.943-0.554 1.313s-0.807 0.554-1.313 0.554h-0.933c-0.506 0-0.943-0.185-1.313-0.554s-0.554-0.807-0.554-1.313v-15.575l-5.542-5.483c-0.35-0.389-0.525-0.836-0.525-1.342s0.185-0.943 0.554-1.313c0.369-0.369 0.807-0.554 1.313-0.554s0.953 0.175 1.342 0.525l5.017 5.075h5.95l5.017-5.075c0.389-0.35 0.836-0.525 1.342-0.525s0.953 0.175 1.342 0.525z"></path>
</symbol>
<symbol id="icon-map" viewBox="0 0 34 32">
<title>map</title>
<path d="M17.333 1.6c1.322 0 2.547 0.331 3.675 0.992s2.022 1.556 2.683 2.683c0.661 1.128 0.992 2.353 0.992 3.675 0 1.439-0.875 3.481-2.625 6.125-1.128 1.672-2.469 3.442-4.025 5.308-0.194 0.233-0.428 0.35-0.7 0.35s-0.506-0.117-0.7-0.35c-1.556-1.867-2.897-3.636-4.025-5.308-1.75-2.644-2.625-4.686-2.625-6.125 0-1.322 0.331-2.547 0.992-3.675s1.556-2.022 2.683-2.683c1.128-0.661 2.353-0.992 3.675-0.992zM17.333 11.4c0.661 0 1.235-0.243 1.721-0.729s0.729-1.060 0.729-1.721c0-0.661-0.243-1.235-0.729-1.721s-1.060-0.729-1.721-0.729c-0.661 0-1.235 0.243-1.721 0.729s-0.729 1.060-0.729 1.721c0 0.661 0.243 1.235 0.729 1.721s1.060 0.729 1.721 0.729zM1.7 14.2l6.942-2.8c0.272 0.856 0.681 1.769 1.225 2.742v13.592l-8.050 3.675c-0.311 0.117-0.603 0.078-0.875-0.117s-0.408-0.447-0.408-0.758v-14.583c0-0.389 0.107-0.739 0.321-1.050s0.496-0.544 0.846-0.7zM17.333 22.6c0.856 0 1.575-0.331 2.158-0.992 1.283-1.556 2.431-3.053 3.442-4.492v14.35l-11.2-3.733v-10.617c1.011 1.439 2.158 2.936 3.442 4.492 0.583 0.661 1.303 0.992 2.158 0.992zM32.85 10.992c0.311-0.117 0.603-0.078 0.875 0.117s0.408 0.447 0.408 0.758v14.583c0 0.389-0.107 0.739-0.321 1.050s-0.496 0.544-0.846 0.7l-8.167 3.267v-16.8l8.050-3.675z"></path>
</symbol>
<symbol id="icon-times-circle-o" viewBox="0 0 30 32">
<title>times-circle-o</title>
<path d="M14.933 2.067c2.606 0 5.017 0.651 7.233 1.954s3.976 3.063 5.279 5.279c1.303 2.217 1.954 4.628 1.954 7.233s-0.651 5.017-1.954 7.233c-1.303 2.217-3.063 3.976-5.279 5.279s-4.628 1.954-7.233 1.954c-2.606 0-5.017-0.651-7.233-1.954s-3.976-3.063-5.279-5.279c-1.303-2.217-1.954-4.628-1.954-7.233s0.651-5.017 1.954-7.233c1.303-2.217 3.063-3.976 5.279-5.279s4.628-1.954 7.233-1.954zM14.933 28.2c2.1 0 4.044-0.525 5.833-1.575s3.208-2.469 4.258-4.258c1.050-1.789 1.575-3.733 1.575-5.833s-0.525-4.044-1.575-5.833c-1.050-1.789-2.469-3.208-4.258-4.258s-3.733-1.575-5.833-1.575c-2.1 0-4.044 0.525-5.833 1.575s-3.208 2.469-4.258 4.258c-1.050 1.789-1.575 3.733-1.575 5.833s0.525 4.044 1.575 5.833c1.050 1.789 2.469 3.208 4.258 4.258s3.733 1.575 5.833 1.575zM17.267 16.533l3.617 3.617c0.117 0.156 0.175 0.331 0.175 0.525s-0.058 0.35-0.175 0.467l-1.342 1.342c-0.117 0.117-0.272 0.175-0.467 0.175s-0.369-0.058-0.525-0.175l-3.617-3.617-3.617 3.617c-0.156 0.117-0.331 0.175-0.525 0.175s-0.35-0.058-0.467-0.175l-1.342-1.342c-0.117-0.117-0.175-0.272-0.175-0.467s0.058-0.369 0.175-0.525l3.617-3.617-3.617-3.617c-0.117-0.156-0.175-0.331-0.175-0.525s0.058-0.35 0.175-0.467l1.342-1.342c0.117-0.117 0.272-0.175 0.467-0.175s0.369 0.058 0.525 0.175l3.617 3.617 3.617-3.617c0.156-0.117 0.331-0.175 0.525-0.175s0.35 0.058 0.467 0.175l1.342 1.342c0.117 0.117 0.175 0.272 0.175 0.467s-0.058 0.369-0.175 0.525l-3.617 3.617z"></path>
</symbol>
<symbol id="icon-award" viewBox="0 0 29 32">
<title>award</title>
<path d="M26.297 15.667l2.635 2.578c0.382 0.382 0.497 0.831 0.344 1.346s-0.477 0.831-0.974 0.945l-3.609 0.917 1.031 3.552c0.153 0.535 0.038 0.993-0.344 1.375s-0.84 0.497-1.375 0.344l-3.552-1.031-0.917 3.609c-0.115 0.535-0.439 0.869-0.974 1.003s-0.974 0.010-1.318-0.372l-2.578-2.635-2.578 2.635c-0.382 0.382-0.831 0.506-1.346 0.372s-0.831-0.468-0.945-1.003l-0.917-3.609-3.552 1.031c-0.535 0.153-0.993 0.038-1.375-0.344s-0.497-0.84-0.344-1.375l1.031-3.552-3.609-0.917c-0.497-0.115-0.821-0.43-0.974-0.945s-0.038-0.964 0.344-1.346l2.635-2.578-2.635-2.578c-0.382-0.382-0.497-0.831-0.344-1.346s0.477-0.831 0.974-0.945l3.609-0.917-1.031-3.552c-0.153-0.535-0.038-0.993 0.344-1.375s0.84-0.497 1.375-0.344l3.552 1.031 0.917-3.609c0.115-0.535 0.439-0.869 0.974-1.003s0.974-0.010 1.318 0.372l2.578 2.693 2.578-2.693c0.382-0.382 0.831-0.497 1.346-0.344s0.831 0.477 0.945 0.974l0.917 3.609 3.552-1.031c0.535-0.153 0.993-0.038 1.375 0.344s0.497 0.84 0.344 1.375l-1.031 3.552 3.609 0.917c0.497 0.115 0.821 0.43 0.974 0.945s0.038 0.964-0.344 1.346l-2.635 2.578z"></path>
</symbol>
<symbol id="icon-clip-board-check" viewBox="0 0 24 32">
<title>clip-board-check</title>
<path d="M19.25 4.667c0.764 0 1.413 0.267 1.948 0.802s0.802 1.184 0.802 1.948v20.167c0 0.764-0.267 1.413-0.802 1.948s-1.184 0.802-1.948 0.802h-16.5c-0.764 0-1.413-0.267-1.948-0.802s-0.802-1.184-0.802-1.948v-20.167c0-0.764 0.267-1.413 0.802-1.948s1.184-0.802 1.948-0.802h4.583c0-0.993 0.363-1.852 1.089-2.578s1.585-1.089 2.578-1.089c0.993 0 1.852 0.363 2.578 1.089s1.089 1.585 1.089 2.578h4.583zM11 3.292c-0.382 0-0.707 0.134-0.974 0.401s-0.401 0.592-0.401 0.974c0 0.382 0.134 0.707 0.401 0.974s0.592 0.401 0.974 0.401c0.382 0 0.707-0.134 0.974-0.401s0.401-0.592 0.401-0.974c0-0.382-0.134-0.707-0.401-0.974s-0.592-0.401-0.974-0.401zM17.932 16.583c0.153-0.153 0.229-0.325 0.229-0.516s-0.076-0.344-0.229-0.458l-1.604-1.661c-0.115-0.115-0.267-0.172-0.458-0.172s-0.363 0.057-0.516 0.172l-6.073 6.016-2.635-2.635c-0.115-0.115-0.267-0.181-0.458-0.201s-0.363 0.048-0.516 0.201l-1.604 1.604c-0.153 0.153-0.229 0.325-0.229 0.516s0.076 0.344 0.229 0.458l4.698 4.755c0.153 0.153 0.325 0.229 0.516 0.229s0.344-0.057 0.458-0.172l8.193-8.135z"></path>
</symbol>
<symbol id="icon-file-drawn" viewBox="0 0 35 32">
<title>file-drawn</title>
<path d="M12.49 25.292c0.229 0.42 0.535 0.754 0.917 1.003s0.802 0.372 1.26 0.372h7.333v2.292c0 0.382-0.134 0.707-0.401 0.974s-0.592 0.401-0.974 0.401h-19.25c-0.382 0-0.707-0.134-0.974-0.401s-0.401-0.592-0.401-0.974v-26.583c0-0.382 0.134-0.707 0.401-0.974s0.592-0.401 0.974-0.401h11.458v7.792c0 0.382 0.134 0.707 0.401 0.974s0.592 0.401 0.974 0.401h7.792v2.693l-7.333 7.276v4.698c-0.229-0.038-0.401-0.172-0.516-0.401-0.344-0.649-0.917-1.060-1.719-1.232s-1.49-0.029-2.063 0.43l-0.802-2.349c-0.115-0.306-0.286-0.544-0.516-0.716s-0.497-0.258-0.802-0.258c-0.306 0-0.573 0.086-0.802 0.258s-0.401 0.411-0.516 0.716l-1.031 3.094c-0.115 0.306-0.325 0.458-0.63 0.458h-0.688c-0.267 0-0.487 0.086-0.659 0.258s-0.258 0.392-0.258 0.659c0 0.267 0.086 0.487 0.258 0.659s0.391 0.258 0.659 0.258h0.688c0.535 0 1.022-0.153 1.461-0.458s0.735-0.726 0.888-1.26l0.63-1.776 0.974 2.865c0.115 0.382 0.382 0.592 0.802 0.63s0.707-0.134 0.859-0.516l0.458-0.859c0.115-0.229 0.306-0.344 0.573-0.344s0.458 0.115 0.573 0.344zM22 7.99v0.344h-7.333v-7.333h0.344c0.382 0 0.707 0.134 0.974 0.401l5.615 5.615c0.267 0.267 0.401 0.592 0.401 0.974zM16.5 20.88l9.339-9.281 3.896 3.896-9.281 9.339h-3.953v-3.953zM32.599 10.568c0.267 0.306 0.401 0.659 0.401 1.060s-0.134 0.735-0.401 1.003l-1.604 1.604-3.896-3.896 1.604-1.604c0.267-0.267 0.602-0.401 1.003-0.401s0.754 0.134 1.060 0.401l1.833 1.833z"></path>
</symbol>
<symbol id="icon-gavel" viewBox="0 0 29 32">
<title>gavel</title>
<path d="M28.932 12.401c0.267 0.267 0.401 0.592 0.401 0.974s-0.134 0.707-0.401 0.974l-7.104 7.161c-0.306 0.267-0.64 0.401-1.003 0.401s-0.678-0.134-0.945-0.401l-1.318-1.318c-0.267-0.267-0.401-0.592-0.401-0.974s0.134-0.707 0.401-0.974l0.344-0.286-2.292-2.292-4.641 4.641 0.344 0.344c0.344 0.344 0.516 0.773 0.516 1.289s-0.172 0.945-0.516 1.289l-6.589 6.589c-0.344 0.344-0.773 0.516-1.289 0.516s-0.945-0.172-1.289-0.516l-2.635-2.635c-0.344-0.344-0.516-0.773-0.516-1.289s0.172-0.945 0.516-1.289l6.589-6.589c0.344-0.344 0.773-0.516 1.289-0.516s0.945 0.172 1.289 0.516l0.344 0.344 4.641-4.641-2.292-2.292-0.286 0.344c-0.267 0.267-0.592 0.401-0.974 0.401s-0.707-0.134-0.974-0.401l-1.318-1.318c-0.267-0.267-0.401-0.582-0.401-0.945s0.134-0.697 0.401-1.003l7.161-7.104c0.267-0.267 0.592-0.401 0.974-0.401s0.707 0.134 0.974 0.401l1.26 1.318c0.267 0.267 0.401 0.592 0.401 0.974s-0.134 0.707-0.401 0.974l-0.286 0.286 6.474 6.474 0.286-0.286c0.267-0.267 0.592-0.401 0.974-0.401s0.707 0.134 0.974 0.401l1.318 1.26z"></path>
</symbol>
<symbol id="icon-group-alt" viewBox="0 0 45 32">
<title>group-alt</title>
<path d="M6.6 13.4c-1.192 0-2.223-0.435-3.094-1.306s-1.306-1.902-1.306-3.094c0-1.192 0.435-2.223 1.306-3.094s1.902-1.306 3.094-1.306c1.192 0 2.223 0.435 3.094 1.306s1.306 1.902 1.306 3.094c0 1.192-0.435 2.223-1.306 3.094s-1.902 1.306-3.094 1.306zM37.4 13.4c-1.192 0-2.223-0.435-3.094-1.306s-1.306-1.902-1.306-3.094c0-1.192 0.435-2.223 1.306-3.094s1.902-1.306 3.094-1.306c1.192 0 2.223 0.435 3.094 1.306s1.306 1.902 1.306 3.094c0 1.192-0.435 2.223-1.306 3.094s-1.902 1.306-3.094 1.306zM39.6 15.6c1.192 0 2.223 0.435 3.094 1.306s1.306 1.902 1.306 3.094v2.2c0 0.596-0.218 1.111-0.653 1.547s-0.951 0.653-1.547 0.653h-4.538c-0.229-1.604-0.802-3.071-1.719-4.4s-2.063-2.36-3.438-3.094c0.871-0.871 1.902-1.306 3.094-1.306h4.4zM22 15.6c-1.375 0-2.658-0.344-3.85-1.031s-2.131-1.627-2.819-2.819c-0.688-1.192-1.031-2.475-1.031-3.85s0.344-2.658 1.031-3.85c0.687-1.192 1.627-2.131 2.819-2.819s2.475-1.031 3.85-1.031c1.375 0 2.658 0.344 3.85 1.031s2.131 1.627 2.819 2.819c0.688 1.192 1.031 2.475 1.031 3.85s-0.344 2.658-1.031 3.85c-0.688 1.192-1.627 2.131-2.819 2.819s-2.475 1.031-3.85 1.031zM27.294 17.8c1.421 0 2.739 0.355 3.953 1.066s2.177 1.673 2.887 2.887c0.71 1.215 1.066 2.532 1.066 3.953v1.994c0 0.917-0.321 1.696-0.962 2.337s-1.421 0.962-2.337 0.962h-19.8c-0.917 0-1.696-0.321-2.338-0.962s-0.963-1.421-0.963-2.337v-1.994c0-1.421 0.355-2.739 1.066-3.953s1.673-2.177 2.887-2.887c1.215-0.71 2.532-1.066 3.953-1.066h0.55c1.558 0.733 3.14 1.1 4.744 1.1s3.185-0.367 4.744-1.1h0.55zM11.894 16.906c-1.375 0.733-2.521 1.765-3.438 3.094s-1.49 2.796-1.719 4.4h-4.537c-0.596 0-1.111-0.218-1.547-0.653s-0.653-0.951-0.653-1.547v-2.2c0-1.192 0.435-2.223 1.306-3.094s1.902-1.306 3.094-1.306h4.4c1.192 0 2.223 0.435 3.094 1.306z"></path>
</symbol>
<symbol id="icon-medkit" viewBox="0 0 34 32">
<title>medkit</title>
<path d="M30.067 7.733c0.833 0 1.542 0.292 2.125 0.875s0.875 1.292 0.875 2.125v18c0 0.833-0.292 1.542-0.875 2.125s-1.292 0.875-2.125 0.875h-26c-0.833 0-1.542-0.292-2.125-0.875s-0.875-1.292-0.875-2.125v-18c0-0.833 0.292-1.542 0.875-2.125s1.292-0.875 2.125-0.875h5v-3c0-0.833 0.292-1.542 0.875-2.125s1.292-0.875 2.125-0.875h10c0.833 0 1.542 0.292 2.125 0.875s0.875 1.292 0.875 2.125v3h5zM13.067 5.733v2h8v-2h-8zM23.067 21.233v-3c0-0.125-0.052-0.24-0.156-0.344s-0.219-0.156-0.344-0.156h-3.5v-3.5c0-0.125-0.052-0.24-0.156-0.344s-0.219-0.156-0.344-0.156h-3c-0.125 0-0.24 0.052-0.344 0.156s-0.156 0.219-0.156 0.344v3.5h-3.5c-0.125 0-0.24 0.052-0.344 0.156s-0.156 0.219-0.156 0.344v3c0 0.125 0.052 0.24 0.156 0.344s0.219 0.156 0.344 0.156h3.5v3.5c0 0.125 0.052 0.24 0.156 0.344s0.219 0.156 0.344 0.156h3c0.125 0 0.24-0.052 0.344-0.156s0.156-0.219 0.156-0.344v-3.5h3.5c0.125 0 0.24-0.052 0.344-0.156s0.156-0.219 0.156-0.344z"></path>
</symbol>
<symbol id="icon-passport" viewBox="0 0 27 32">
<title>passport</title>
<path d="M7.448 11.083c0.153-0.878 0.497-1.671 1.031-2.378s1.203-1.251 2.005-1.633c-0.458 1.108-0.726 2.444-0.802 4.010h-2.234zM7.448 12.917h2.234c0.076 1.566 0.344 2.903 0.802 4.010-0.802-0.382-1.47-0.926-2.005-1.633s-0.878-1.499-1.031-2.378zM12.833 17.443c-0.267-0.267-0.535-0.764-0.802-1.49-0.306-0.878-0.477-1.891-0.516-3.036h2.635c-0.038 1.146-0.21 2.158-0.516 3.036-0.267 0.726-0.535 1.222-0.802 1.49zM11.516 11.083c0.038-1.146 0.21-2.158 0.516-3.036 0.267-0.726 0.535-1.222 0.802-1.49 0.267 0.267 0.535 0.764 0.802 1.49 0.306 0.878 0.477 1.891 0.516 3.036h-2.635zM15.182 16.927c0.458-1.108 0.726-2.444 0.802-4.010h2.234c-0.153 0.878-0.497 1.671-1.031 2.378s-1.203 1.251-2.005 1.633zM23.833 1c0.497 0 0.926 0.181 1.289 0.544s0.544 0.793 0.544 1.289v25.667c0 0.497-0.181 0.926-0.544 1.289s-0.793 0.544-1.289 0.544h-20.167c-1.031 0-1.9-0.353-2.607-1.060s-1.060-1.575-1.060-2.607v-22c0-1.031 0.353-1.9 1.060-2.607s1.575-1.060 2.607-1.060h20.167zM19.25 24.833c0.267 0 0.487-0.086 0.659-0.258s0.258-0.392 0.258-0.659c0-0.267-0.086-0.487-0.258-0.659s-0.392-0.258-0.659-0.258h-12.833c-0.267 0-0.487 0.086-0.659 0.258s-0.258 0.392-0.258 0.659c0 0.267 0.086 0.487 0.258 0.659s0.391 0.258 0.659 0.258h12.833zM12.833 19.333c1.337 0 2.569-0.325 3.695-0.974s2.015-1.537 2.664-2.664c0.649-1.127 0.974-2.358 0.974-3.695s-0.325-2.569-0.974-3.695c-0.649-1.127-1.537-2.015-2.664-2.664s-2.358-0.974-3.695-0.974c-1.337 0-2.569 0.325-3.695 0.974s-2.015 1.537-2.664 2.664c-0.649 1.127-0.974 2.358-0.974 3.695s0.325 2.569 0.974 3.695c0.649 1.127 1.537 2.015 2.664 2.664s2.358 0.974 3.695 0.974zM15.182 7.073c0.802 0.382 1.47 0.926 2.005 1.633s0.878 1.499 1.031 2.378h-2.234c-0.076-1.566-0.344-2.903-0.802-4.010z"></path>
</symbol>
<symbol id="icon-star" viewBox="0 0 32 32">
<title>star</title>
<path d="M14.839 2.031c0.229-0.458 0.563-0.764 1.003-0.917s0.878-0.153 1.318 0c0.439 0.153 0.773 0.458 1.003 0.917l3.724 7.563 8.365 1.203c0.497 0.076 0.888 0.306 1.174 0.688s0.42 0.802 0.401 1.26c-0.019 0.458-0.201 0.859-0.544 1.203l-6.073 5.901 1.432 8.365c0.076 0.458-0.010 0.888-0.258 1.289s-0.602 0.659-1.060 0.773c-0.458 0.115-0.898 0.057-1.318-0.172l-7.505-3.896-7.505 3.896c-0.42 0.229-0.859 0.286-1.318 0.172s-0.812-0.372-1.060-0.773c-0.248-0.401-0.334-0.831-0.258-1.289l1.432-8.365-6.073-5.901c-0.344-0.344-0.525-0.745-0.544-1.203s0.115-0.878 0.401-1.26c0.286-0.382 0.678-0.611 1.174-0.688l8.365-1.203 3.724-7.563z"></path>
</symbol>
<symbol id="icon-house" viewBox="0 0 33 32">
<title>house</title>
<path d="M32.257 15.205c-0.082-0.154-0.17-0.286-0.269-0.409l0.004 0.005-0.276-0.309s-0.103-0.101-0.303-0.303l-3.176-3.174v-0.921q0-1.809 0-3.613c0-0.074 0-0.183 0-0.313-0.011-0.18-0.039-0.348-0.084-0.509l0.004 0.017c-0.146-0.51-0.449-0.936-0.852-1.234l-0.006-0.004c-0.385-0.285-0.868-0.456-1.392-0.456h-0c-0.133 0-0.262 0.011-0.389 0.031l0.014-0.002c-0.582 0.091-1.081 0.393-1.427 0.822l-0.003 0.004c-0.329 0.411-0.528 0.938-0.528 1.511 0 0.003 0 0.007 0 0.010v-0l-5.468-5.468c-0.221-0.229-0.473-0.426-0.749-0.586l-0.016-0.009c-0.306-0.18-0.674-0.286-1.066-0.286s-0.76 0.106-1.076 0.291l0.010-0.005c-0.297 0.167-0.553 0.362-0.778 0.589l-13.563 13.563c-0.055 0.055-0.162 0.156-0.284 0.294-0.356 0.41-0.575 0.946-0.585 1.533l-0 0.002c0.008 0.983 0.613 1.822 1.469 2.175l0.016 0.006c0.241 0.1 0.52 0.158 0.813 0.16h0.001c0 0 0.001 0 0.001 0 0.362 0 0.704-0.082 1.010-0.229l-0.014 0.006c0.308-0.148 0.572-0.338 0.797-0.565l12.175-12.173q3.653 3.655 7.312 7.306 0 5.106 0 10.212v4.141h-14.623v-4.993q0-1.281 0-2.561c0-0.074 0-0.181 0-0.313-0.010-0.179-0.039-0.346-0.084-0.507l0.004 0.017c-0.284-0.986-1.179-1.695-2.239-1.695-0.004 0-0.008 0-0.012 0h0.001c-0.133 0.001-0.263 0.011-0.39 0.029l0.015-0.002c-0.578 0.093-1.074 0.393-1.418 0.82l-0.003 0.004c-0.329 0.411-0.528 0.938-0.528 1.511 0 0.003 0 0.007 0 0.010v-0 9.901c-0 0.010-0 0.023-0 0.035 0 0.32 0.052 0.627 0.149 0.915l-0.006-0.020c0.208 0.629 0.68 1.121 1.281 1.351l0.015 0.005c0.297 0.113 0.641 0.179 1 0.179 0.015 0 0.029-0 0.044-0l-0.002 0h18.98c0.011 0 0.023 0 0.036 0 0.321 0 0.629-0.051 0.919-0.145l-0.021 0.006c0.261-0.086 0.487-0.208 0.686-0.363l-0.005 0.004c0.308-0.244 0.546-0.564 0.687-0.931l0.005-0.015c0.113-0.3 0.179-0.647 0.179-1.009 0-0.015-0-0.030-0-0.045l0 0.002v-11.878l0.309 0.307c0.424 0.418 1.006 0.677 1.648 0.681h0.001c0.004 0 0.009 0 0.013 0 1.083 0 1.992-0.744 2.244-1.749l0.003-0.016c0.042-0.17 0.068-0.367 0.071-0.569l0-0.003c-0.004-0.394-0.108-0.763-0.288-1.084l0.006 0.011z"></path>
</symbol>
<symbol id="icon-arrow-circled-down" viewBox="0 0 32 32">
<title>arrow-circled-down</title>
<path fill="#90a4bc" style="fill: var(--color1, #90a4bc)" d="M16 32c-8.837 0-16-7.163-16-16s7.163-16 16-16c8.837 0 16 7.163 16 16s-7.163 16-16 16zM26.182 13.253c0-0.090-0.037-0.187-0.112-0.292l-2.828-2.828c-0.195-0.195-0.389-0.195-0.584 0l-6.173 6.195-6.173-6.195c-0.195-0.195-0.389-0.195-0.584 0l-2.828 2.828c-0.195 0.195-0.195 0.389 0 0.584l9.293 9.293c0.195 0.195 0.389 0.195 0.584 0l9.293-9.293c0.075-0.105 0.112-0.202 0.112-0.292z"></path>
</symbol>
<symbol id="icon-arrow-circled-right" viewBox="0 0 32 32">
<title>arrow-circled-right</title>
<path fill="#90a4bc" style="fill: var(--color1, #90a4bc)" d="M16 32c-8.837 0-16-7.163-16-16s7.163-16 16-16c8.837 0 16 7.163 16 16s-7.163 16-16 16zM14.222 5.818c-0.090 0-0.187 0.037-0.292 0.112l-2.828 2.828c-0.195 0.195-0.195 0.389 0 0.584l6.173 6.173-6.173 6.173c-0.195 0.195-0.195 0.389 0 0.584l2.828 2.828c0.195 0.195 0.389 0.195 0.584 0l9.293-9.293c0.195-0.195 0.195-0.389 0-0.584l-9.293-9.293c-0.105-0.075-0.202-0.112-0.292-0.112z"></path>
</symbol>
<symbol id="icon-helping-hands" viewBox="0 0 26 32">
<title>helping-hands</title>
<path d="M22.349 4.378c-1.357-1.331-3.149-2.074-5.043-2.074v0c-1.664 0-3.226 0.563-4.506 1.587-1.28-1.024-2.842-1.587-4.506-1.587 0 0 0 0 0 0-1.894 0-3.686 0.742-5.043 2.074-1.357 1.357-2.099 3.149-2.099 5.043s0.742 3.686 2.074 5.043c0 0 0 0 0 0l2.278 2.278c0 0 0.026 0.026 0.026 0.026 0.358 0.358 0.819 0.512 1.28 0.512 0.077 0 0.154 0 0.205-0.026-0.051 0.538 0.102 1.075 0.512 1.485 0.333 0.333 0.794 0.512 1.254 0.512v0c0.077 0 0.154 0 0.205-0.026 0 0.077-0.026 0.154-0.026 0.205 0 0.486 0.179 0.922 0.538 1.254 0.358 0.358 0.819 0.512 1.254 0.512 0.077 0 0.154 0 0.205-0.026 0 0.077-0.026 0.154-0.026 0.205 0 0.486 0.179 0.922 0.538 1.28s0.819 0.512 1.28 0.512c0.461 0 0.922-0.179 1.28-0.512l8.294-8.269c0 0 0 0 0 0 1.357-1.357 2.074-3.149 2.074-5.043 0.051-1.818-0.691-3.61-2.048-4.966zM3.814 13.952c-0.026 0-0.026 0 0 0-1.203-1.203-1.869-2.816-1.869-4.531s0.666-3.302 1.869-4.506c1.203-1.203 2.816-1.869 4.506-1.869 0 0 0 0 0 0 1.434 0 2.79 0.486 3.917 1.357-0.333 0.307-4.403 4.378-5.094 5.069-0.486 0.486-0.435 1.178 0.128 1.741 0.205 0.205 0.486 0.384 0.819 0.512l-2.534 2.534c-0.256 0.256-0.435 0.614-0.486 0.947l-1.254-1.254zM21.811 13.952c0 0 0 0 0 0l-8.294 8.294c-0.41 0.41-1.050 0.41-1.459 0-0.179-0.205-0.282-0.461-0.282-0.742s0.102-0.538 0.307-0.717c0 0 0 0 0 0s0 0 0 0l4.096-4.096c0.154-0.154 0.154-0.384 0-0.538s-0.384-0.154-0.538 0l-4.096 4.096c-0.41 0.41-1.050 0.41-1.459 0-0.205-0.205-0.307-0.461-0.307-0.717 0-0.282 0.102-0.538 0.307-0.717l4.096-4.096c0.154-0.154 0.154-0.384 0-0.538s-0.384-0.154-0.538 0l-4.096 4.096c-0.205 0.205-0.461 0.307-0.717 0.307v0c-0.282 0-0.538-0.102-0.717-0.307-0.41-0.41-0.41-1.050 0-1.459v0c0 0 0 0 0 0l4.096-4.096c0.154-0.154 0.154-0.384 0-0.538s-0.384-0.154-0.538 0l-4.096 4.096c-0.41 0.41-1.050 0.41-1.459 0h0.026l-0.026-0.026c-0.384-0.41-0.384-1.024 0.026-1.434l2.816-2.893c0.666 0.026 1.382-0.179 1.997-0.794l1.946-1.946c0.768 0.691 1.562 1.101 2.33 1.203 0.947 0.128 1.818-0.205 2.56-0.922 0.154-0.154 0.154-0.384 0-0.538s-0.384-0.154-0.538 0c-0.563 0.563-1.203 0.819-1.92 0.717-0.691-0.102-1.459-0.538-2.176-1.254-0.154-0.154-0.41-0.154-0.538 0l-2.202 2.202c-0.486 0.486-1.024 0.614-1.536 0.563-0.026 0-0.051 0-0.102 0-0.41-0.051-0.768-0.256-0.998-0.486-0.154-0.179-0.307-0.435-0.102-0.64 0.717-0.717 5.094-5.094 5.094-5.094 1.203-1.203 2.816-1.869 4.506-1.869 0 0 0 0 0 0 1.715 0 3.302 0.666 4.506 1.869s1.869 2.816 1.869 4.506c0.026 1.69-0.64 3.302-1.843 4.506z"></path>
</symbol>
<symbol id="icon-medical-provider" viewBox="0 0 26 32">
<title>medical-provider</title>
<path d="M15.403 20.193h-4.995c-0.285 0-0.516-0.231-0.516-0.516v-3.862h-3.865c-0.284 0-0.516-0.231-0.516-0.516v-5c0-0.285 0.231-0.516 0.516-0.516h3.865v-3.862c0-0.285 0.231-0.516 0.516-0.516h4.995c0.285 0 0.516 0.231 0.516 0.516v3.862h3.865c0.284 0 0.516 0.231 0.516 0.516v5c0 0.285-0.231 0.516-0.516 0.516h-3.865v3.862c0 0.285-0.231 0.516-0.516 0.516zM10.925 19.162h3.963v-3.862c0-0.285 0.231-0.516 0.516-0.516h3.865v-3.968h-3.865c-0.285 0-0.516-0.231-0.516-0.516v-3.862h-3.963v3.862c0 0.285-0.231 0.516-0.516 0.516h-3.865v3.968h3.865c0.285 0 0.516 0.231 0.516 0.516v3.862z"></path>
<path d="M12.906 24.32c-6.352 0-11.52-5.168-11.52-11.52s5.168-11.52 11.52-11.52 11.52 5.168 11.52 11.52c0 6.352-5.168 11.52-11.52 11.52zM12.906 2.312c-5.783 0-10.488 4.705-10.488 10.488s4.706 10.488 10.488 10.488 10.488-4.705 10.488-10.488-4.706-10.488-10.488-10.488z"></path>
</symbol>
<symbol id="icon-mental-health" viewBox="0 0 26 32">
<title>mental-health</title>
<path d="M15.739 23.296h-9.083c-0.001 0-0.001 0-0.002 0-0.267 0-0.486-0.204-0.51-0.464l-0.474-5.265-1.769-0.284c-0.246-0.040-0.432-0.251-0.432-0.506 0-0.072 0.015-0.14 0.041-0.202l1.865-4.402v-1.62s0-0.020 0-0.031c0.156-2.394 1.254-4.504 2.922-5.985 1.47-1.312 3.407-2.109 5.531-2.109 4.483 0 8.137 3.551 8.301 7.995l0 0.015c0.003 0.081 0.004 0.175 0.004 0.27 0 2.928-1.513 5.503-3.799 6.986l-2.121 5.28c-0.077 0.191-0.261 0.323-0.476 0.323-0 0-0 0-0.001 0zM7.124 22.272h8.269l2.015-5.094c0.041-0.108 0.114-0.196 0.208-0.255 2.132-1.296 3.532-3.604 3.532-6.239 0-4.018-3.257-7.276-7.276-7.276-1.885 0-3.603 0.717-4.895 1.893-1.469 1.305-2.436 3.161-2.576 5.242l-0.001 1.744c-0 0.072-0.015 0.141-0.042 0.203l-1.65 3.893 1.516 0.243c0.229 0.035 0.407 0.219 0.432 0.448z"></path>
<path d="M15.747 13.824v0c-0.202-0.002-0.375-0.121-0.457-0.291l-1.978-4.189-1.551 2.214c-0.094 0.132-0.246 0.218-0.419 0.218-0 0-0.001 0-0.001 0h-3.405c-0.283 0-0.512-0.229-0.512-0.512s0.229-0.512 0.512-0.512h3.139l1.905-2.721c0.094-0.133 0.247-0.218 0.419-0.218 0.204 0 0.38 0.119 0.462 0.292l1.903 4.043 1.28-2.583c0.083-0.163 0.247-0.274 0.437-0.282 0.005-0 0.011-0 0.016-0 0.189 0 0.353 0.102 0.442 0.254l0.749 1.216h1.024c0.283 0 0.512 0.229 0.512 0.512s-0.229 0.512-0.512 0.512h-1.318c-0.186-0.002-0.349-0.103-0.436-0.254l-0.403-0.673-1.349 2.701c-0.087 0.164-0.258 0.274-0.453 0.274-0.002 0-0.003 0-0.005-0z"></path>
</symbol>
<symbol id="icon-nurse-clipboard" viewBox="0 0 26 32">
<title>nurse-clipboard</title>
<path d="M12.376 6.639c0.928 0 1.681 0.753 1.681 1.682 0 0.717-0.449 1.327-1.080 1.569v0.439c-0.361 0.062-0.751 0.141-1.17 0.245-0.011 0.003-0.022 0.006-0.033 0.009v-0.693c-0.631-0.242-1.080-0.853-1.080-1.569-0-0.929 0.753-1.682 1.682-1.682zM12.978 20.979v0.276c0 0.332-0.269 0.602-0.601 0.602s-0.602-0.269-0.602-0.602v-3.118c0.236-0.073 0.495-0.129 0.745-0.179 0.129-0.026 0.259-0.050 0.392-0.075 0.022-0.004 0.044-0.008 0.066-0.013v3.109zM14.058 21.241c-0.091 0-0.164-0.073-0.164-0.164-0.006 0.003 0.006-0.076-0.047-0.182-0.040-0.088-0.165-0.196-0.377-0.281v-0.378c0.316 0.106 0.581 0.293 0.677 0.507 0.050 0.102 0.066 0.192 0.069 0.248 0.004 0.057 0.006 0.086 0.006 0.086 0 0.091-0.073 0.164-0.164 0.164zM15.238 16.066c-0.014 0.062-0.033 0.125-0.052 0.187-0.023 0.060-0.055 0.118-0.084 0.175-0.135 0.224-0.331 0.369-0.517 0.472-0.213 0.115-0.424 0.192-0.633 0.252l0 0.001c-0.009 0.003-0.017 0.004-0.026 0.006-0.069 0.019-0.138 0.037-0.206 0.054-0.015 0.004-0.029 0.007-0.044 0.011-0.069 0.016-0.137 0.032-0.205 0.047-0.36 0.078-0.712 0.136-1.049 0.203-0.337 0.068-0.664 0.139-0.958 0.245-0.063 0.023-0.124 0.048-0.183 0.074-0.079 0.035-0.155 0.072-0.226 0.113-0.119 0.076-0.227 0.158-0.304 0.255-0.152 0.191-0.197 0.444-0.154 0.7 0.034 0.247 0.166 0.442 0.354 0.589 0.101 0.077 0.213 0.14 0.33 0.195v0.45c-0.195-0.070-0.396-0.163-0.59-0.301-0.126-0.099-0.254-0.212-0.348-0.363-0.093-0.147-0.167-0.317-0.194-0.492-0.022-0.088-0.020-0.175-0.028-0.263 0.002-0.090 0.004-0.183 0.020-0.275 0.029-0.188 0.114-0.373 0.229-0.532 0.118-0.159 0.269-0.279 0.425-0.383 0.142-0.087 0.29-0.159 0.44-0.22 0.015-0.006 0.030-0.014 0.046-0.020 0.002-0 0.003-0.001 0.004-0.002 0.336-0.132 0.68-0.215 1.026-0.295s0.694-0.146 1.034-0.23c0.127-0.031 0.254-0.066 0.379-0.104 0.205-0.062 0.4-0.135 0.563-0.232 0.272-0.157 0.381-0.354 0.336-0.594-0.020-0.102-0.077-0.187-0.182-0.27-0.105-0.082-0.244-0.155-0.4-0.211-0.179-0.066-0.373-0.117-0.572-0.161v-0.694c0.268 0.062 0.538 0.134 0.812 0.244 0.191 0.076 0.388 0.177 0.571 0.329 0.183 0.148 0.35 0.39 0.389 0.657 0.006 0.065 0.014 0.13 0.015 0.194-0.004 0.062-0.011 0.125-0.018 0.187zM11.775 16.576v-4.067c0.147-0.043 0.302-0.083 0.468-0.12 0.254-0.056 0.499-0.102 0.735-0.141v4.052c-0.12 0.027-0.239 0.055-0.36 0.081-0.138 0.030-0.276 0.059-0.416 0.091-0.144 0.033-0.286 0.068-0.427 0.105zM15.558 11.509c-0.236 0.031-0.419 0.267-0.745 0.267-0.717 0-0.649-0.182-1.138-0.12-0.068 0.008-0.134 0.015-0.205 0.024-0.408 0.051-0.856 0.123-1.333 0.228-0.262 0.058-0.53 0.13-0.795 0.221-0.020 0.007-0.040 0.015-0.061 0.022-0.059 0.021-0.117 0.043-0.175 0.066-0.010 0.004-0.020 0.008-0.029 0.012-0.049 0.020-0.099 0.041-0.147 0.062-0.026 0.012-0.051 0.025-0.076 0.037-0.033 0.016-0.067 0.031-0.099 0.048-0.058 0.031-0.115 0.063-0.17 0.097-0.227 0.142-0.414 0.321-0.462 0.501-0.022 0.043-0.016 0.093-0.027 0.14 0.007 0.049-0.001 0.107 0.017 0.15 0.006 0.049 0.032 0.089 0.049 0.134 0.031 0.040 0.056 0.085 0.102 0.125 0.082 0.083 0.196 0.163 0.333 0.228 0.132 0.069 0.286 0.124 0.442 0.177 0.080 0.025 0.161 0.049 0.244 0.071v0.758c-0.154-0.033-0.307-0.070-0.461-0.114-0.186-0.057-0.372-0.117-0.557-0.206-0.185-0.084-0.372-0.197-0.541-0.356-0.087-0.076-0.16-0.175-0.23-0.275-0.059-0.11-0.119-0.221-0.145-0.342-0.041-0.12-0.040-0.237-0.050-0.356 0.010-0.121 0.012-0.244 0.052-0.358 0.028-0.12 0.082-0.222 0.136-0.325 0.027-0.052 0.062-0.092 0.093-0.139 0.033-0.044 0.064-0.091 0.101-0.126 0.071-0.076 0.143-0.153 0.22-0.211l0.113-0.092 0.116-0.079c0.309-0.206 0.621-0.342 0.923-0.456s0.595-0.2 0.877-0.271c0.564-0.14 1.082-0.235 1.541-0.302 0.070-0.010 0.137-0.019 0.205-0.028 0.656-0.087 1.291-0.125 1.773-0.094 0.49 0.031 0.827 0.133 0.852 0.33 0.052 0.389-0.505 0.522-0.741 0.553z"></path>
<path d="M14.514 1.945c-0.082-0.874-0.818-1.559-1.714-1.559s-1.632 0.684-1.714 1.559h-2.651v3.036h8.73v-3.036h-2.651z"></path>
<path d="M17.821 2.915v1.149h3.117v19.559l-16.407-0.019v-19.54h3.248v-1.149h-4.266v21.837h18.574v-21.837z"></path>
</symbol>
<symbol id="icon-reminder" viewBox="0 0 26 32">
<title>reminder</title>
<path d="M20.34 6.924c-0.277-0.124-0.555-0.234-0.831-0.333 0.311-0.088 0.623-0.187 0.934-0.305 2.335-0.888 4.399-2.579 3.824-4.091-0.166-0.436-0.698-1.167-2.402-1.167-0.943 0-2.070 0.231-3.173 0.65-1.137 0.432-2.116 1.008-2.811 1.63v-0.963c0-1.293-1.051-2.346-2.345-2.346s-2.347 1.052-2.347 2.346v4.753c-0.296-0.136-0.625-0.213-0.972-0.213-0.647 0-1.234 0.263-1.659 0.689-0.425-0.425-1.012-0.689-1.659-0.689-1.018 0-1.883 0.653-2.207 1.561-0.333-0.185-0.715-0.292-1.122-0.292-1.28 0-2.32 1.041-2.32 2.32v0.741h-0.015v7.062c0 4.038 3.285 7.322 7.323 7.322s7.322-3.285 7.322-7.322v-8.399c0.664 0.592 1.524 1.131 2.44 1.542 1.214 0.545 2.438 0.845 3.446 0.845 1.467 0 1.978-0.648 2.15-1.034 0.184-0.408 0.327-1.265-0.773-2.422-0.67-0.706-1.666-1.375-2.803-1.886zM16.199 5.062c0.252-0.561 1.292-1.457 2.981-2.099 0.952-0.362 1.905-0.561 2.685-0.561 0.756 0 1.084 0.193 1.117 0.281 0.1 0.262-0.786 1.467-3.027 2.319-0.952 0.361-1.905 0.56-2.685 0.56-0.756 0-1.084-0.193-1.118-0.283-0.011-0.028-0.005-0.102 0.047-0.218zM14.507 6.885h-1.943v-0.927h1.943v0.927zM13.536 1.374c0.535 0 0.971 0.436 0.971 0.972v2.238h-1.943v-2.238c0-0.536 0.436-0.972 0.972-0.972zM10.218 8.259c0.536 0 0.972 0.436 0.972 0.973v1.814c-0.728-0.127-1.263-0.152-1.315-0.154-0.163 0-0.383 0.001-0.628 0.021v-1.682c0-0.536 0.436-0.973 0.972-0.973zM5.928 9.232c0-0.536 0.435-0.973 0.971-0.973s0.972 0.436 0.972 0.973v2.079c-0.526 0.324-0.934 0.901-0.934 1.928 0 0.792 0.398 1.268 0.934 1.58v1.219c0 0.536-0.436 0.972-0.972 0.972s-0.971-0.436-0.971-0.972v-6.806zM2.625 10.475c0-0.522 0.424-0.946 0.946-0.946 0.521 0 0.944 0.424 0.944 0.946v4.376c0 0.521-0.424 0.945-0.944 0.945-0.522 0-0.946-0.424-0.946-0.945v-4.376zM14.507 18.278c0 3.28-2.668 5.947-5.948 5.947s-5.949-2.668-5.949-5.947v-1.319c0.293 0.134 0.617 0.211 0.961 0.211 0.413 0 0.802-0.11 1.138-0.301 0.337 0.884 1.191 1.515 2.191 1.515 1.294 0 2.346-1.052 2.346-2.346v-0.724c0.107 0.026 0.212 0.050 0.314 0.073 0.537 0.123 1.145 0.262 1.364 0.481 0.448 0.448 0.428 2.056 0.275 3.002-0.061 0.375 0.193 0.728 0.567 0.789 0.037 0.006 0.075 0.009 0.112 0.009 0.331 0 0.622-0.24 0.677-0.576 0.083-0.507 0.443-3.093-0.659-4.196-0.498-0.498-1.276-0.677-2.029-0.849-1.096-0.251-1.555-0.419-1.555-0.808 0-0.79 0.292-0.972 1.534-0.973 0.047 0.002 4.661 0.26 4.661 2.773v3.239zM14.507 12.353c-0.441-0.341-1.007-0.654-1.749-0.91-0.065-0.022-0.13-0.043-0.195-0.063v-3.121h1.943v4.094zM22.664 10.67c-0.033 0.072-0.294 0.222-0.897 0.222-0.806 0-1.858-0.264-2.883-0.724-2.187-0.983-3.001-2.236-2.885-2.492 0.032-0.073 0.294-0.222 0.895-0.222 0.807 0 1.858 0.264 2.884 0.724 0.964 0.433 1.828 1.009 2.371 1.58 0.47 0.494 0.551 0.833 0.515 0.912z"></path>
</symbol>
<symbol id="icon-team" viewBox="0 0 26 32">
<title>team</title>
<path d="M6.636 7.068c-0.006 1.008-0.751 1.764-1.742 1.766-1 0.002-1.764-0.749-1.769-1.738-0.004-0.976 0.782-1.779 1.741-1.778 0.983 0.001 1.774 0.783 1.769 1.749z"></path>
<path d="M5.915 20.366c0.437 0 0.874-0.022 1.306-0.043 0.403-0.020 0.784-0.039 1.145-0.039 0.446 0 0.807-0.361 0.807-0.807s-0.361-0.807-0.807-0.807c-0.401 0-0.82 0.021-1.225 0.041-0.891 0.044-1.812 0.090-2.576-0.082-0.627-0.142-1.191-0.528-1.588-1.088-0.36-0.508-0.442-1.086-0.547-1.818-0.016-0.109-0.031-0.219-0.048-0.33l-0.538-3.54c-0.067-0.441-0.48-0.744-0.919-0.676-0.44 0.067-0.743 0.478-0.676 0.919l0.538 3.54c0.016 0.106 0.031 0.211 0.046 0.315 0.119 0.834 0.242 1.697 0.828 2.523 0.628 0.886 1.533 1.5 2.549 1.729 0.556 0.126 1.13 0.164 1.706 0.164z"></path>
<path d="M12.431 21.662c-0.098-0.5-0.196-1.002-0.29-1.504-0.227-1.182-0.446-2.364-0.658-3.549-0.102-0.572-0.411-0.876-0.972-0.948-0.521-0.068-3.528-0.222-3.528-0.222l-0.124-2.6c-0.014-0.145-0.024-0.29-0.035-0.432-0.042-0.538-0.075-1.051-0.157-1.554-0.101-0.617-0.454-1.086-0.927-1.318-0.259-0.128-0.552-0.184-0.858-0.154-0.016 0-0.030 0.002-0.046 0.004-0.948 0.114-1.596 0.925-1.537 1.909 0.096 1.574 0.243 3.147 0.268 4.722 0.023 1.47 0.81 2.142 2.268 2.131 1.329-0.010 2.483 0.009 3.812-0.005 0.281 0.818 0.38 1.614 0.594 2.38 0.147 0.532 0.238 1.080 0.418 1.6 0.176 0.512 0.549 0.874 1.133 0.698 0.538-0.162 0.757-0.566 0.64-1.157z"></path>
<path d="M18.964 7.068c0.006 1.008 0.751 1.764 1.742 1.766 1 0.002 1.764-0.749 1.769-1.738 0.004-0.976-0.782-1.779-1.741-1.778-0.983 0.001-1.774 0.783-1.769 1.749z"></path>
<path d="M19.685 20.366c-0.437 0-0.874-0.022-1.306-0.043-0.403-0.020-0.784-0.039-1.145-0.039-0.446 0-0.807-0.361-0.807-0.807s0.361-0.807 0.807-0.807c0.401 0 0.82 0.021 1.225 0.041 0.891 0.044 1.812 0.090 2.576-0.082 0.627-0.142 1.191-0.528 1.588-1.088 0.36-0.508 0.442-1.086 0.547-1.818 0.016-0.109 0.031-0.219 0.048-0.33l0.538-3.54c0.067-0.441 0.48-0.744 0.919-0.676 0.44 0.067 0.743 0.478 0.676 0.919l-0.538 3.54c-0.016 0.106-0.031 0.211-0.046 0.315-0.119 0.834-0.242 1.697-0.828 2.523-0.628 0.886-1.533 1.5-2.549 1.729-0.556 0.126-1.13 0.164-1.706 0.164z"></path>
<path d="M13.169 21.662c0.098-0.5 0.196-1.002 0.29-1.504 0.227-1.182 0.446-2.364 0.658-3.549 0.102-0.572 0.411-0.876 0.972-0.948 0.521-0.068 3.528-0.222 3.528-0.222l0.124-2.6c0.014-0.145 0.024-0.29 0.035-0.432 0.042-0.538 0.075-1.051 0.157-1.554 0.102-0.617 0.454-1.086 0.927-1.318 0.259-0.128 0.552-0.184 0.858-0.154 0.016 0 0.030 0.002 0.046 0.004 0.948 0.114 1.596 0.925 1.537 1.909-0.096 1.574-0.243 3.147-0.268 4.722-0.023 1.47-0.81 2.142-2.268 2.131-1.329-0.010-2.483 0.009-3.812-0.005-0.281 0.818-0.38 1.614-0.594 2.38-0.147 0.532-0.238 1.080-0.418 1.6-0.176 0.512-0.549 0.874-1.133 0.698-0.538-0.162-0.757-0.566-0.64-1.157z"></path>
<path d="M10.236 7.72l-1.021 0.854v-0.854h-0.623c-0.212 0-0.384-0.172-0.384-0.384v-3.535c0-0.211 0.172-0.382 0.384-0.382h5.46c0.162 0 0.308 0.106 0.362 0.261 0.013 0.041 0.020 0.082 0.020 0.121v3.534c0 0.212-0.172 0.384-0.382 0.384h-3.238l0.038 0.128c0.051 0.174 0.124 0.344 0.214 0.502 0.122 0.223 0.284 0.436 0.49 0.642 0.061 0.056 0.124 0.114 0.19 0.168 0.462 0.379 0.998 0.627 1.594 0.738 0.191 0.034 0.384 0.056 0.57 0.062 0.189 0.010 0.377 0.006 0.594-0.008 0.057-0.004 0.115-0.009 0.164-0.016l0.019-0.001 0.006 0.002c0.125 0.088 0.262 0.17 0.421 0.252 0.075 0.038 0.147 0.072 0.223 0.105 0.37 0.158 0.774 0.252 1.208 0.28h0.074c0.090-0.003 0.169-0.020 0.233-0.049 0.039-0.013 0.077-0.036 0.088-0.044 0.044-0.024 0.093-0.065 0.134-0.111 0.017-0.017 0.038-0.043 0.059-0.072 0.055-0.084 0.089-0.17 0.103-0.26 0.006-0.036 0.009-0.066 0.009-0.095 0-0.042-0.004-0.078-0.010-0.102-0.010-0.071-0.038-0.154-0.077-0.226-0.083-0.156-0.166-0.315-0.249-0.473l-0.073-0.141c0.242-0.209 0.437-0.42 0.594-0.647 0.146-0.212 0.259-0.435 0.337-0.661 0.084-0.235 0.132-0.494 0.142-0.768 0.005-0.118-0.003-0.23-0.010-0.328-0.004-0.036-0.006-0.075-0.009-0.132l-0.004-0.028c-0.047-0.328-0.193-0.63-0.253-0.745l-0.057-0.103c-0.081-0.13-0.153-0.232-0.225-0.321-0.256-0.316-0.578-0.576-0.957-0.772-0.251-0.128-0.574-0.25-0.814-0.32v0 0.673l0.049 0.014c0.174 0.056 0.313 0.127 0.471 0.207 0.297 0.154 0.549 0.357 0.749 0.606 0.048 0.058 0.096 0.125 0.141 0.193l0.062 0.106c0.044 0.083 0.159 0.318 0.192 0.54 0.002 0.034 0.004 0.064 0.007 0.092l0.003 0.049c0.009 0.105 0.012 0.177 0.009 0.244-0.007 0.207-0.043 0.401-0.107 0.58-0.061 0.177-0.149 0.348-0.259 0.506-0.126 0.181-0.289 0.358-0.496 0.538l-0.070 0.060c-0.071 0.066-0.218 0.202-0.184 0.432 0.014 0.085 0.050 0.157 0.104 0.263l0.136 0.26c0.066 0.128 0.13 0.255 0.199 0.381 0.002 0.003 0.004 0.006 0.005 0.009l-0.010 0.001c-0.358-0.024-0.691-0.101-0.991-0.23-0.064-0.026-0.125-0.054-0.185-0.084-0.124-0.065-0.242-0.136-0.352-0.214-0.067-0.045-0.14-0.077-0.212-0.093-0.077-0.018-0.163-0.022-0.218-0.014l-0.070 0.006c-0.035 0.003-0.068 0.007-0.104 0.008-0.177 0.012-0.344 0.015-0.51 0.007-0.174-0.007-0.332-0.024-0.483-0.052-0.399-0.074-0.749-0.215-1.071-0.432-0.078-0.052-0.154-0.109-0.229-0.17-0.099-0.081-0.189-0.167-0.269-0.258h2.165c0.588 0 1.066-0.478 1.066-1.066v-3.535c0-0.050-0.003-0.097-0.010-0.14-0.069-0.528-0.522-0.926-1.056-0.926h-5.46c-0.588 0-1.066 0.478-1.066 1.066v3.534c0 0.568 0.446 1.033 1.005 1.064v1.637l1.954-1.636-0.248-0.681z"></path>
</symbol>
<symbol id="icon-angle-down" viewBox="0 0 18 28">
<title>angle-down</title>
<path d="M16.797 11.5c0 0.125-0.063 0.266-0.156 0.359l-7.281 7.281c-0.094 0.094-0.234 0.156-0.359 0.156s-0.266-0.063-0.359-0.156l-7.281-7.281c-0.094-0.094-0.156-0.234-0.156-0.359s0.063-0.266 0.156-0.359l0.781-0.781c0.094-0.094 0.219-0.156 0.359-0.156 0.125 0 0.266 0.063 0.359 0.156l6.141 6.141 6.141-6.141c0.094-0.094 0.234-0.156 0.359-0.156s0.266 0.063 0.359 0.156l0.781 0.781c0.094 0.094 0.156 0.234 0.156 0.359z"></path>
</symbol>
<symbol id="icon-check-circle" viewBox="0 0 24 28">
<title>check-circle</title>
<path d="M20.062 11.469c0-0.266-0.094-0.531-0.281-0.719l-1.422-1.406c-0.187-0.187-0.438-0.297-0.703-0.297s-0.516 0.109-0.703 0.297l-6.375 6.359-3.531-3.531c-0.187-0.187-0.438-0.297-0.703-0.297s-0.516 0.109-0.703 0.297l-1.422 1.406c-0.187 0.187-0.281 0.453-0.281 0.719s0.094 0.516 0.281 0.703l5.656 5.656c0.187 0.187 0.453 0.297 0.703 0.297 0.266 0 0.531-0.109 0.719-0.297l8.484-8.484c0.187-0.187 0.281-0.438 0.281-0.703zM24 14c0 6.625-5.375 12-12 12s-12-5.375-12-12 5.375-12 12-12 12 5.375 12 12z"></path>
</symbol>
<symbol id="icon-minus-circle" viewBox="0 0 24 28">
<title>minus-circle</title>
<path d="M19 15v-2c0-0.547-0.453-1-1-1h-12c-0.547 0-1 0.453-1 1v2c0 0.547 0.453 1 1 1h12c0.547 0 1-0.453 1-1zM24 14c0 6.625-5.375 12-12 12s-12-5.375-12-12 5.375-12 12-12 12 5.375 12 12z"></path>
</symbol>
<symbol id="icon-clock-o" viewBox="0 0 24 28">
<title>clock-o</title>
<path d="M14 8.5v7c0 0.281-0.219 0.5-0.5 0.5h-5c-0.281 0-0.5-0.219-0.5-0.5v-1c0-0.281 0.219-0.5 0.5-0.5h3.5v-5.5c0-0.281 0.219-0.5 0.5-0.5h1c0.281 0 0.5 0.219 0.5 0.5zM20.5 14c0-4.688-3.813-8.5-8.5-8.5s-8.5 3.813-8.5 8.5 3.813 8.5 8.5 8.5 8.5-3.813 8.5-8.5zM24 14c0 6.625-5.375 12-12 12s-12-5.375-12-12 5.375-12 12-12 12 5.375 12 12z"></path>
</symbol>
<symbol id="icon-stop" viewBox="0 0 24 28">
<title>stop</title>
<path d="M24 3v22c0 0.547-0.453 1-1 1h-22c-0.547 0-1-0.453-1-1v-22c0-0.547 0.453-1 1-1h22c0.547 0 1 0.453 1 1z"></path>
</symbol>
<symbol id="icon-check" viewBox="0 0 28 28">
<title>check</title>
<path d="M26.109 8.844c0 0.391-0.156 0.781-0.438 1.062l-13.438 13.438c-0.281 0.281-0.672 0.438-1.062 0.438s-0.781-0.156-1.062-0.438l-7.781-7.781c-0.281-0.281-0.438-0.672-0.438-1.062s0.156-0.781 0.438-1.062l2.125-2.125c0.281-0.281 0.672-0.438 1.062-0.438s0.781 0.156 1.062 0.438l4.594 4.609 10.25-10.266c0.281-0.281 0.672-0.438 1.062-0.438s0.781 0.156 1.062 0.438l2.125 2.125c0.281 0.281 0.438 0.672 0.438 1.062z"></path>
</symbol>
<symbol id="icon-user2" viewBox="0 0 20 28">
<title>user2</title>
<path d="M20 21.859c0 2.281-1.5 4.141-3.328 4.141h-13.344c-1.828 0-3.328-1.859-3.328-4.141 0-4.109 1.016-8.859 5.109-8.859 1.266 1.234 2.984 2 4.891 2s3.625-0.766 4.891-2c4.094 0 5.109 4.75 5.109 8.859zM16 8c0 3.313-2.688 6-6 6s-6-2.688-6-6 2.688-6 6-6 6 2.688 6 6z"></path>
</symbol>
<symbol id="icon-group" viewBox="0 0 30 28">
<title>group</title>
<path d="M9.266 14c-1.625 0.047-3.094 0.75-4.141 2h-2.094c-1.563 0-3.031-0.75-3.031-2.484 0-1.266-0.047-5.516 1.937-5.516 0.328 0 1.953 1.328 4.062 1.328 0.719 0 1.406-0.125 2.078-0.359-0.047 0.344-0.078 0.688-0.078 1.031 0 1.422 0.453 2.828 1.266 4zM26 23.953c0 2.531-1.672 4.047-4.172 4.047h-13.656c-2.5 0-4.172-1.516-4.172-4.047 0-3.531 0.828-8.953 5.406-8.953 0.531 0 2.469 2.172 5.594 2.172s5.063-2.172 5.594-2.172c4.578 0 5.406 5.422 5.406 8.953zM10 4c0 2.203-1.797 4-4 4s-4-1.797-4-4 1.797-4 4-4 4 1.797 4 4zM21 10c0 3.313-2.688 6-6 6s-6-2.688-6-6 2.688-6 6-6 6 2.688 6 6zM30 13.516c0 1.734-1.469 2.484-3.031 2.484h-2.094c-1.047-1.25-2.516-1.953-4.141-2 0.812-1.172 1.266-2.578 1.266-4 0-0.344-0.031-0.688-0.078-1.031 0.672 0.234 1.359 0.359 2.078 0.359 2.109 0 3.734-1.328 4.062-1.328 1.984 0 1.937 4.25 1.937 5.516zM28 4c0 2.203-1.797 4-4 4s-4-1.797-4-4 1.797-4 4-4 4 1.797 4 4z"></path>
</symbol>
<symbol id="icon-child" viewBox="0 0 20 28">
<title>child</title>
<path d="M18.562 8.563l-4.562 4.562v12.875c0 0.969-0.781 1.75-1.75 1.75s-1.75-0.781-1.75-1.75v-6h-1v6c0 0.969-0.781 1.75-1.75 1.75s-1.75-0.781-1.75-1.75v-12.875l-4.562-4.562c-0.578-0.594-0.578-1.531 0-2.125 0.594-0.578 1.531-0.578 2.125 0l3.563 3.563h5.75l3.563-3.563c0.594-0.578 1.531-0.578 2.125 0 0.578 0.594 0.578 1.531 0 2.125zM13.5 6c0 1.937-1.563 3.5-3.5 3.5s-3.5-1.563-3.5-3.5 1.563-3.5 3.5-3.5 3.5 1.563 3.5 3.5z"></path>
</symbol>
<symbol id="icon-envelope-o" viewBox="0 0 28 28">
<title>envelope-o</title>
<path d="M26 23.5v-12c-0.328 0.375-0.688 0.719-1.078 1.031-2.234 1.719-4.484 3.469-6.656 5.281-1.172 0.984-2.625 2.188-4.25 2.188h-0.031c-1.625 0-3.078-1.203-4.25-2.188-2.172-1.813-4.422-3.563-6.656-5.281-0.391-0.313-0.75-0.656-1.078-1.031v12c0 0.266 0.234 0.5 0.5 0.5h23c0.266 0 0.5-0.234 0.5-0.5zM26 7.078c0-0.391 0.094-1.078-0.5-1.078h-23c-0.266 0-0.5 0.234-0.5 0.5 0 1.781 0.891 3.328 2.297 4.438 2.094 1.641 4.188 3.297 6.266 4.953 0.828 0.672 2.328 2.109 3.422 2.109h0.031c1.094 0 2.594-1.437 3.422-2.109 2.078-1.656 4.172-3.313 6.266-4.953 1.016-0.797 2.297-2.531 2.297-3.859zM28 6.5v17c0 1.375-1.125 2.5-2.5 2.5h-23c-1.375 0-2.5-1.125-2.5-2.5v-17c0-1.375 1.125-2.5 2.5-2.5h23c1.375 0 2.5 1.125 2.5 2.5z"></path>
</symbol>
<symbol id="icon-wheelchair" viewBox="0 0 25 28">
<title>wheelchair</title>
<path d="M15.984 18.547l1.594 3.187q-0.906 2.797-3.281 4.531t-5.297 1.734q-2.438 0-4.508-1.211t-3.281-3.281-1.211-4.508q0-2.828 1.633-5.156t4.289-3.297l0.266 2.047q-1.906 0.844-3.047 2.586t-1.141 3.82q0 2.891 2.055 4.945t4.945 2.055q1.969 0 3.633-1.016t2.578-2.742 0.773-3.695zM24.547 20.109l0.906 1.781-4 2q-0.203 0.109-0.453 0.109-0.625 0-0.891-0.547l-3.734-7.453h-7.375q-0.375 0-0.664-0.258t-0.336-0.633l-1.5-12.172q-0.031-0.25 0.094-0.656 0.219-0.797 0.891-1.289t1.516-0.492q1.031 0 1.766 0.734t0.734 1.766q0 1.078-0.812 1.836t-1.875 0.648l0.578 4.516h6.609v2h-6.359l0.25 2h7.109q0.625 0 0.891 0.547l3.563 7.109z"></path>
</symbol>
<symbol id="icon-change-up" viewBox="0 0 40 33.283">
  <path d="M29.762,43.274l1.314,1.314a1.414,1.414,0,0,1,0,2.006l-11.5,11.5a1.414,1.414,0,0,1-2.006,0l-11.5-11.5a1.414,1.414,0,0,1,0-2.006l1.314-1.314a1.422,1.422,0,0,1,2.03.024L16.2,50.428V33.42A1.417,1.417,0,0,1,17.625,32h1.894a1.417,1.417,0,0,1,1.42,1.42V50.428L27.733,43.3a1.412,1.412,0,0,1,2.03-.024Z" transform="translate(38.493 65.283) rotate(180)"/><circle cx="2" cy="2" r="2"/><circle cx="2" cy="2" r="2" transform="translate(6)"/><circle cx="2" cy="2" r="2" transform="translate(12)"/><circle cx="2" cy="2" r="2" transform="translate(18)"/><circle cx="2" cy="2" r="2" transform="translate(24)"/><circle cx="2" cy="2" r="2" transform="translate(30)"/><circle cx="2" cy="2" r="2" transform="translate(36)"/>
</symbol>
<symbol id="icon-change-down" viewBox="0 0 40 33.283">
  <path d="M29.762,43.274l1.314,1.314a1.414,1.414,0,0,1,0,2.006l-11.5,11.5a1.414,1.414,0,0,1-2.006,0l-11.5-11.5a1.414,1.414,0,0,1,0-2.006l1.314-1.314a1.422,1.422,0,0,1,2.03.024L16.2,50.428V33.42A1.417,1.417,0,0,1,17.625,32h1.894a1.417,1.417,0,0,1,1.42,1.42V50.428L27.733,43.3a1.412,1.412,0,0,1,2.03-.024Z" transform="translate(1.35 -25.233)"/><circle cx="2" cy="2" r="2"/><circle cx="2" cy="2" r="2" transform="translate(6)"/><circle cx="2" cy="2" r="2" transform="translate(12)"/><circle cx="2" cy="2" r="2" transform="translate(18)"/><circle cx="2" cy="2" r="2" transform="translate(24)"/><circle cx="2" cy="2" r="2" transform="translate(30)"/><circle cx="2" cy="2" r="2" transform="translate(36)"/>
</symbol>
<symbol id="icon-change-none" viewBox="0 0 40 4">
  <circle cx="2" cy="2" r="2"/><circle cx="2" cy="2" r="2" transform="translate(6)"/><circle cx="2" cy="2" r="2" transform="translate(12)"/><circle cx="2" cy="2" r="2" transform="translate(18)"/><circle cx="2" cy="2" r="2" transform="translate(24)"/><circle cx="2" cy="2" r="2" transform="translate(30)"/><circle cx="2" cy="2" r="2" transform="translate(36)"/>
</symbol>
<symbol id="icon-ok-circled" viewBox="0 0 44.82 44.82"><g transform="translate(0 0)"><path d="M52.82,30.41A22.41,22.41,0,1,1,30.41,8,22.41,22.41,0,0,1,52.82,30.41Zm-25,11.866L44.444,25.649a1.446,1.446,0,0,0,0-2.045L42.4,21.56a1.446,1.446,0,0,0-2.045,0L26.8,35.119l-6.331-6.331a1.446,1.446,0,0,0-2.045,0l-2.045,2.045a1.446,1.446,0,0,0,0,2.045l9.4,9.4a1.446,1.446,0,0,0,2.045,0Z" transform="translate(-8 -8)"/></g></symbol>
<symbol id="icon-cancel-circled2" viewBox="0 0 44.82 44.82"><path d="M30.41,8A22.41,22.41,0,1,0,52.82,30.41,22.406,22.406,0,0,0,30.41,8Zm0,40.483A18.073,18.073,0,1,1,48.483,30.41,18.068,18.068,0,0,1,30.41,48.483Zm9.2-23.693L33.988,30.41l5.621,5.621a1.085,1.085,0,0,1,0,1.536l-2.042,2.042a1.085,1.085,0,0,1-1.536,0L30.41,33.988l-5.621,5.621a1.085,1.085,0,0,1-1.536,0l-2.042-2.042a1.085,1.085,0,0,1,0-1.536l5.621-5.621-5.621-5.621a1.085,1.085,0,0,1,0-1.536l2.042-2.042a1.085,1.085,0,0,1,1.536,0l5.621,5.621,5.621-5.621a1.085,1.085,0,0,1,1.536,0l2.042,2.042a1.085,1.085,0,0,1,0,1.536Z" transform="translate(-8 -8)"/></symbol>
<symbol id="icon-city" viewBox="0 0 463 463">
  <path d="m455.5,416h-16.5v-88.5c0-4.142-3.358-7.5-7.5-7.5h-8.5v-16.5c0-8.547-6.953-15.5-15.5-15.5h-32.5v-96.5c0-4.142-3.358-7.5-7.5-7.5h-9.402c-2.783-11.355-11.743-20.306-23.098-23.091v-49.409c0-4.142-3.358-7.5-7.5-7.5s-7.5,3.358-7.5,7.5v49.409c-11.355,2.785-20.314,11.736-23.098,23.091h-1.902v-64.5c0-2.667-1.417-5.134-3.721-6.479l-92.279-53.829v-19.692c0-4.142-3.358-7.5-7.5-7.5s-7.5,3.358-7.5,7.5v120.5h-48.5c-4.142,0-7.5,3.358-7.5,7.5v90.144l-90.319,22.58c-3.339,0.835-5.681,3.835-5.681,7.276v128.5h-24.5c-4.142,0-7.5,3.358-7.5,7.5s3.358,7.5 7.5,7.5h448c4.142,0 7.5-3.358 7.5-7.5s-3.358-7.5-7.5-7.5zm-112-96c-4.142,0-7.5,3.358-7.5,7.5v48.5h-41v-65h57v9h-8.5zm80.5,64h-73v-17h73v17zm-70.055-88h-58.945v-65h65v58.945c-2.541,1.412-4.643,3.514-6.055,6.055zm-58.945,95h41v25h-41v-25zm56,8h73v17h-73v-17zm73-47h-73v-17h73v17zm-16-48.5v16.5h-41v-16.5c0-0.276 0.224-0.5 0.5-0.5h40c0.276,0 0.5,0.224 0.5,0.5zm-104.5-104.5c4.142,0 7.5-3.358 7.5-7.5 0-9.098 7.402-16.5 16.5-16.5s16.5,7.402 16.5,16.5c0,4.142 3.358,7.5 7.5,7.5h8.5v17h-65v-17h8.5zm-104.5-122.442l81,47.25v292.192h-17v-280.5c0-4.142-3.358-7.5-7.5-7.5s-7.5,3.358-7.5,7.5v280.5h-17v-248.5c0-4.142-3.358-7.5-7.5-7.5h-24.5v-83.442zm17,258.442v17h-73v-17h73zm-73-15v-17h73v17h-73zm73-64h-73v-17h73v17zm0,15v17h-73v-17h73zm-73,96h73v17h-73v-17zm73-143h-73v-17h73v17zm-73,175h73v17h-73v-17zm73-224v17h-73v-17h73zm-169,118.356l81-20.25v142.894h-17v-104.5c0-4.142-3.358-7.5-7.5-7.5s-7.5,3.358-7.5,7.5v104.5h-17v-96.5c0-4.142-3.358-7.5-7.5-7.5s-7.5,3.358-7.5,7.5v96.5h-17v-122.644z"/>
</symbol>
</defs>
</svg>
